<svg xmlns="http://www.w3.org/2000/svg" xmlns:xlink="http://www.w3.org/1999/xlink" width="392" zoomAndPan="magnify" viewBox="0 0 294 140.249994" height="187" preserveAspectRatio="xMidYMid meet" version="1.0"><defs><g/><clipPath id="efcea0c5d3"><path d="M 93 28 L 196 28 L 196 82 L 93 82 Z M 93 28 " clip-rule="nonzero"/></clipPath><clipPath id="eb1ff81104"><path d="M 86.15625 44.386719 L 162.207031 0.0546875 L 199.402344 63.859375 L 123.351562 108.191406 Z M 86.15625 44.386719 " clip-rule="nonzero"/></clipPath><clipPath id="25f4e856f1"><path d="M 86.15625 44.386719 L 162.207031 0.0546875 L 199.402344 63.859375 L 123.351562 108.191406 Z M 86.15625 44.386719 " clip-rule="nonzero"/></clipPath><clipPath id="dfac050e36"><path d="M 86.15625 44.386719 L 162.207031 0.0546875 L 199.402344 63.859375 L 123.351562 108.191406 Z M 86.15625 44.386719 " clip-rule="nonzero"/></clipPath><clipPath id="0e0eb39131"><path d="M 96 30 L 184 30 L 184 77 L 96 77 Z M 96 30 " clip-rule="nonzero"/></clipPath><clipPath id="2216811327"><path d="M 86.15625 44.386719 L 162.207031 0.0546875 L 199.402344 63.859375 L 123.351562 108.191406 Z M 86.15625 44.386719 " clip-rule="nonzero"/></clipPath><clipPath id="e2b964c920"><path d="M 86.15625 44.386719 L 162.207031 0.0546875 L 199.402344 63.859375 L 123.351562 108.191406 Z M 86.15625 44.386719 " clip-rule="nonzero"/></clipPath><clipPath id="c4c09d674e"><path d="M 86.15625 44.386719 L 162.207031 0.0546875 L 199.402344 63.859375 L 123.351562 108.191406 Z M 86.15625 44.386719 " clip-rule="nonzero"/></clipPath><clipPath id="e660b7d878"><path d="M 95 29 L 193 29 L 193 81 L 95 81 Z M 95 29 " clip-rule="nonzero"/></clipPath><clipPath id="336284bc6f"><path d="M 86.15625 44.386719 L 162.207031 0.0546875 L 199.402344 63.859375 L 123.351562 108.191406 Z M 86.15625 44.386719 " clip-rule="nonzero"/></clipPath><clipPath id="21242e701b"><path d="M 86.15625 44.386719 L 162.207031 0.0546875 L 199.402344 63.859375 L 123.351562 108.191406 Z M 86.15625 44.386719 " clip-rule="nonzero"/></clipPath><clipPath id="2f978db248"><path d="M 86.15625 44.386719 L 162.207031 0.0546875 L 199.402344 63.859375 L 123.351562 108.191406 Z M 86.15625 44.386719 " clip-rule="nonzero"/></clipPath><clipPath id="8c1727f158"><path d="M 122 37 L 194 37 L 194 80 L 122 80 Z M 122 37 " clip-rule="nonzero"/></clipPath><clipPath id="72e6616094"><path d="M 86.15625 44.386719 L 162.207031 0.0546875 L 199.402344 63.859375 L 123.351562 108.191406 Z M 86.15625 44.386719 " clip-rule="nonzero"/></clipPath><clipPath id="0b2616165f"><path d="M 86.15625 44.386719 L 162.207031 0.0546875 L 199.402344 63.859375 L 123.351562 108.191406 Z M 86.15625 44.386719 " clip-rule="nonzero"/></clipPath><clipPath id="44de50f271"><path d="M 86.15625 44.386719 L 162.207031 0.0546875 L 199.402344 63.859375 L 123.351562 108.191406 Z M 86.15625 44.386719 " clip-rule="nonzero"/></clipPath></defs><g clip-path="url(#efcea0c5d3)"><g clip-path="url(#eb1ff81104)"><g clip-path="url(#25f4e856f1)"><g clip-path="url(#dfac050e36)"><path fill="#090909" d="M 194.800781 56.808594 C 195.496094 58.628906 195.132812 60.339844 193.660156 62.207031 C 193.570312 62.363281 193.488281 62.46875 193.390625 62.546875 C 192.964844 62.894531 191.820312 64.03125 190.386719 65.472656 C 187.449219 68.378906 183.441406 72.375 181.625 73.617188 C 181.074219 73.996094 180.511719 74.386719 179.925781 74.808594 C 178.300781 75.960938 176.597656 77.152344 174.824219 78.1875 C 171.21875 80.292969 168.152344 81.167969 165.222656 80.949219 C 162.5 80.738281 159.648438 80.375 157.367188 79.074219 C 155.101562 77.804688 153.558594 75.644531 152.0625 73.5625 C 151.929688 73.375 151.800781 73.1875 151.65625 73.007812 C 149.109375 69.472656 146.757812 66.105469 144.519531 62.714844 C 143.683594 65.046875 142.46875 67.25 141.308594 69.40625 L 141.183594 69.640625 C 140.769531 70.429688 140.324219 71.234375 139.917969 72.039062 C 139.746094 72.402344 139.558594 72.773438 139.367188 73.148438 C 138.972656 73.964844 138.527344 74.875 138.015625 75.738281 C 137.648438 76.4375 137.191406 77.148438 136.621094 77.949219 C 136.539062 78.117188 136.4375 78.296875 136.335938 78.4375 C 136.089844 78.988281 135.738281 79.535156 135.335938 79.992188 C 134.917969 80.460938 134.449219 80.875 133.960938 81.15625 C 133.8125 81.246094 133.675781 81.324219 133.542969 81.382812 C 132.253906 81.953125 130.890625 81.8125 129.859375 81.644531 C 129.046875 81.714844 128.101562 81.660156 127.027344 81.457031 C 124.25 81.152344 121.433594 80.464844 118.703125 79.789062 L 117.425781 79.480469 C 114.296875 78.714844 111.058594 77.929688 108.003906 76.734375 C 106.148438 76.480469 104.289062 75.136719 103.277344 73.296875 L 103.269531 73.28125 C 102.011719 71.503906 100.929688 69.582031 99.878906 67.707031 C 99.53125 67.078125 99.171875 66.457031 98.824219 65.832031 C 98.121094 64.621094 97.363281 63.320312 96.4375 61.734375 C 96.234375 61.386719 96 61.019531 95.800781 60.710938 L 95.792969 60.695312 C 95.339844 59.988281 94.875 59.265625 94.542969 58.488281 C 94.0625 57.796875 93.796875 56.820312 93.863281 55.992188 C 93.902344 55.5 94.113281 55.136719 94.328125 54.769531 C 94.460938 54.546875 94.597656 54.328125 94.71875 54.113281 L 94.824219 53.949219 C 94.882812 53.835938 94.945312 53.738281 95.011719 53.640625 C 95.023438 53.59375 95.035156 53.546875 95.039062 53.480469 C 95.09375 53.328125 95.1875 53.214844 95.308594 53.144531 L 95.324219 53.132812 L 95.339844 53.125 L 95.398438 53.050781 C 95.433594 53.007812 95.457031 52.976562 95.476562 52.945312 C 96.726562 50.3125 98.3125 47.769531 99.832031 45.324219 L 100.128906 44.828125 C 100.371094 44.441406 100.601562 44.066406 100.828125 43.691406 C 101.570312 42.488281 102.277344 41.226562 102.96875 40.011719 L 102.976562 39.988281 C 104.25 37.75 105.566406 35.441406 107.089844 33.320312 C 107.339844 32.425781 107.871094 31.730469 108.675781 31.261719 C 110.601562 30.140625 113.582031 30.546875 115.203125 30.898438 C 117.851562 31.113281 120.472656 31.671875 122.988281 32.230469 L 123.039062 32.242188 C 123.523438 32.34375 123.992188 32.453125 124.480469 32.554688 C 127.011719 33.101562 129.570312 33.554688 132.203125 34.023438 C 132.433594 34.074219 132.664062 34.121094 132.902344 34.183594 L 132.941406 34.179688 C 133.054688 34.195312 133.15625 34.199219 133.265625 34.214844 L 133.367188 34.214844 L 133.457031 34.226562 C 133.558594 34.226562 133.667969 34.242188 133.769531 34.242188 L 133.808594 34.242188 C 134.492188 34.085938 135.464844 34.429688 135.96875 34.703125 C 136.472656 34.976562 136.824219 35.335938 137.035156 35.800781 C 137.316406 36.003906 137.519531 36.351562 137.660156 36.59375 L 137.667969 36.609375 C 137.710938 36.683594 137.738281 36.730469 137.765625 36.773438 L 137.851562 36.886719 C 138.1875 37.398438 138.578125 37.960938 138.875 38.574219 C 139.640625 39.710938 140.28125 40.953125 140.925781 42.160156 L 140.96875 42.234375 C 141.394531 43.039062 141.769531 43.75 142.167969 44.429688 C 142.273438 44.613281 142.371094 44.777344 142.484375 44.976562 C 143.730469 43.800781 145.027344 42.785156 146.066406 41.957031 L 146.097656 41.9375 C 146.34375 41.734375 146.582031 41.554688 146.792969 41.390625 C 149.53125 39.1875 152.777344 36.605469 156.058594 34.148438 C 157.882812 32.78125 159.503906 31.589844 161.03125 30.519531 C 161.128906 30.441406 161.234375 30.378906 161.332031 30.304688 C 161.746094 30 162.199219 29.699219 162.652344 29.433594 C 163.578125 28.894531 164.378906 28.667969 165.175781 28.710938 C 165.238281 28.714844 165.304688 28.71875 165.359375 28.746094 C 167.679688 27.878906 170.105469 28.832031 172.0625 29.613281 C 173.40625 30.148438 174.785156 30.800781 176.175781 31.550781 C 176.378906 31.652344 176.589844 31.773438 176.808594 31.867188 C 177.75 32.332031 178.707031 32.828125 179.339844 33.632812 C 181.046875 34.925781 182.199219 36.761719 183.308594 38.523438 C 183.519531 38.847656 183.71875 39.15625 183.925781 39.480469 C 185.703125 42.210938 187.609375 45.167969 189.507812 48.148438 C 190.015625 48.949219 190.574219 49.734375 191.15625 50.589844 C 192.527344 52.5625 193.980469 54.632812 194.800781 56.808594 Z M 194.800781 56.808594 " fill-opacity="1" fill-rule="nonzero"/></g></g></g></g><g clip-path="url(#0e0eb39131)"><g clip-path="url(#2216811327)"><g clip-path="url(#e2b964c920)"><g clip-path="url(#c4c09d674e)"><path fill="#ffffff" d="M 132.664062 38.269531 C 132.859375 38.117188 132.976562 38.003906 133.105469 37.910156 C 133.140625 37.972656 133.214844 38.03125 133.265625 38.082031 C 133.367188 37.941406 133.445312 37.792969 133.546875 37.65625 L 133.5625 37.644531 L 133.566406 37.621094 C 133.609375 37.515625 133.65625 37.390625 133.703125 37.261719 C 133.613281 37.210938 133.523438 37.164062 133.398438 37.089844 C 133.566406 36.996094 133.6875 36.886719 133.792969 36.824219 C 133.796875 36.800781 133.78125 36.769531 133.789062 36.746094 C 133.832031 36.191406 133.238281 35.488281 128.066406 34.835938 C 127.652344 34.792969 127.296875 34.738281 127.089844 34.699219 C 125.402344 34.382812 123.683594 34.011719 122.167969 33.679688 L 121.722656 33.574219 C 121.554688 33.53125 121.378906 33.511719 121.214844 33.46875 C 121.214844 33.46875 121.214844 33.46875 121.1875 33.460938 C 118.132812 32.816406 114.878906 32.320312 111.289062 31.984375 L 111.265625 31.976562 L 111.25 31.988281 C 110.542969 32.097656 109.949219 32.300781 109.417969 32.609375 C 108.917969 32.902344 108.496094 33.289062 108.140625 33.761719 L 108.109375 33.777344 C 107.097656 35.703125 105.921875 37.582031 104.777344 39.382812 L 104.742188 39.425781 C 103.8125 40.898438 102.753906 42.566406 101.835938 44.234375 C 101.273438 45.253906 100.726562 46.300781 100.164062 47.359375 C 98.984375 49.585938 97.664062 52.09375 96.179688 54.355469 L 96.113281 54.453125 L 96.167969 54.546875 C 96.308594 54.789062 96.535156 55.039062 96.800781 55.25 L 96.851562 55.300781 L 96.914062 55.304688 C 97.816406 55.285156 98.71875 55.40625 99.511719 55.511719 L 99.636719 55.519531 C 99.921875 55.554688 100.195312 55.597656 100.46875 55.621094 C 102.050781 55.789062 103.695312 56.066406 105.503906 56.449219 L 105.535156 56.433594 C 108.800781 56.671875 112.054688 57.410156 114.917969 58.554688 L 114.941406 58.5625 L 114.964844 58.566406 C 115.550781 58.671875 116.15625 58.804688 116.863281 59 L 116.886719 59.007812 C 116.933594 59.019531 116.980469 59.03125 117.015625 59.054688 L 117.117188 59.09375 L 117.238281 59.125 C 117.375 59.148438 117.519531 59.183594 117.667969 59.199219 C 118.535156 59.359375 119.546875 59.460938 120.402344 59.082031 C 120.402344 59.082031 120.449219 59.054688 120.449219 59.054688 L 120.464844 59.046875 C 120.871094 58.667969 121.210938 58.167969 121.542969 57.691406 L 121.714844 57.425781 C 121.820312 57.261719 121.9375 57.113281 122.054688 56.964844 L 122.070312 56.957031 L 122.074219 56.933594 C 122.929688 54.875 124.101562 52.917969 125.296875 51.027344 C 125.1875 50.949219 125.054688 50.824219 124.824219 50.636719 C 125.167969 50.496094 125.386719 50.347656 125.613281 50.316406 C 125.652344 50.3125 125.683594 50.335938 125.703125 50.367188 C 125.921875 50.015625 126.136719 49.6875 126.359375 49.335938 L 126.554688 49.039062 C 126.960938 48.417969 127.382812 47.746094 127.769531 47.117188 C 128.859375 45.367188 129.992188 43.511719 131.214844 41.460938 C 131.449219 41.0625 131.683594 40.664062 131.914062 40.222656 L 131.992188 40.078125 C 132.269531 39.574219 132.5625 39.035156 132.882812 38.507812 C 132.890625 38.480469 132.796875 38.394531 132.664062 38.269531 Z M 108.039062 37.804688 C 108.097656 37.691406 108.160156 37.59375 108.230469 37.472656 C 107.785156 36.738281 107.898438 35.886719 108.316406 35.175781 C 108.199219 34.980469 108.070312 34.792969 108.003906 34.570312 C 107.980469 34.5 108.210938 34.367188 108.328125 34.257812 C 108.445312 34.390625 108.554688 34.507812 108.691406 34.671875 C 109 34.332031 109.398438 34.039062 109.820312 33.855469 C 110.207031 33.609375 110.667969 33.460938 111.136719 33.429688 C 112.410156 33.175781 113.746094 33.550781 114.089844 34.804688 C 114.378906 35.890625 113.746094 36.929688 112.8125 37.554688 C 111.734375 38.667969 109.785156 39.054688 108.613281 37.917969 C 108.523438 37.96875 108.433594 38.023438 108.332031 38.0625 C 108.28125 38.113281 108.019531 37.839844 108.039062 37.804688 Z M 116.257812 45.871094 C 116.269531 45.964844 116.101562 46.0625 116.007812 46.175781 C 115.898438 46.058594 115.734375 45.953125 115.679688 45.824219 C 115.660156 45.753906 115.800781 45.609375 115.933594 45.390625 C 116.082031 45.609375 116.230469 45.722656 116.257812 45.871094 Z M 113.667969 48.675781 C 113.46875 48.792969 113.257812 48.914062 113.050781 49.015625 C 113.007812 49.042969 112.929688 48.945312 112.757812 48.859375 C 113.046875 48.691406 113.257812 48.570312 113.464844 48.46875 C 113.496094 48.453125 113.597656 48.59375 113.667969 48.675781 Z M 104.699219 52.871094 C 103.515625 54.085938 101.15625 54.917969 99.761719 53.605469 C 99.3125 53.179688 99.097656 52.535156 99.128906 51.886719 C 99.082031 51.53125 99.097656 51.136719 99.21875 50.722656 C 99.761719 48.828125 102.421875 47.820312 104.136719 48.707031 C 105.753906 49.5625 105.9375 51.582031 104.699219 52.871094 Z M 106.269531 51.875 C 106.160156 51.757812 106.222656 51.476562 106.207031 51.28125 C 106.382812 51.648438 106.542969 52 106.554688 52.050781 C 106.71875 52.121094 106.429688 52.046875 106.269531 51.875 Z M 107.046875 46.867188 C 105.171875 47.515625 102.917969 46.441406 103.15625 44.234375 C 103.226562 43.589844 103.554688 42.96875 104.027344 42.453125 C 104.042969 42.445312 104.042969 42.445312 104.046875 42.421875 C 105.050781 41.351562 106.652344 40.71875 107.9375 41.144531 C 109.347656 41.617188 110.007812 43.238281 109.398438 44.382812 C 109.359375 44.527344 109.296875 44.664062 109.210938 44.796875 C 109.203125 44.820312 109.175781 44.835938 109.167969 44.863281 C 108.773438 45.820312 108.007812 46.53125 107.046875 46.867188 Z M 122.003906 53.148438 C 122.554688 54.933594 121.074219 56.402344 119.65625 57.210938 C 118.191406 58.042969 116.4375 57.890625 115.605469 56.25 C 114.816406 54.6875 116.457031 53.324219 117.621094 52.566406 C 117.742188 52.496094 117.875 52.480469 117.984375 52.496094 C 118.113281 52.402344 118.265625 52.3125 118.386719 52.242188 C 119.71875 51.566406 121.46875 51.394531 122.003906 53.148438 Z M 119.542969 49.277344 C 119.496094 49.304688 119.335938 49.136719 119.125 48.976562 C 119.382812 48.828125 119.539062 48.714844 119.703125 48.679688 C 119.769531 48.660156 119.878906 48.839844 119.96875 48.929688 C 119.835938 49.046875 119.703125 49.207031 119.542969 49.277344 Z M 115.289062 39.472656 C 115.699219 39.65625 116.089844 39.835938 116.5 40.019531 C 116.367188 40.136719 116.210938 40.25 115.976562 40.445312 C 115.683594 40.113281 115.421875 39.839844 115.160156 39.566406 C 115.222656 39.53125 115.28125 39.457031 115.289062 39.472656 Z M 118.558594 45.257812 C 118.53125 45.210938 118.769531 44.953125 118.824219 44.980469 C 119.105469 45.082031 119.375 45.226562 119.648438 45.351562 C 119.4375 45.472656 119.25 45.605469 118.929688 45.789062 C 118.792969 45.585938 118.625 45.441406 118.558594 45.257812 Z M 124.476562 51.363281 C 124.347656 51.355469 124.214844 51.230469 123.957031 51.101562 C 124.222656 50.964844 124.355469 50.847656 124.484375 50.851562 C 124.59375 50.871094 124.691406 51.035156 124.792969 51.140625 C 124.695312 51.214844 124.59375 51.355469 124.476562 51.363281 Z M 125.851562 46.652344 C 125.101562 48.183594 123.230469 49.335938 121.503906 48.945312 C 119.46875 48.492188 119.558594 46.171875 120.925781 45.03125 C 121.5625 44.03125 122.742188 43.304688 123.898438 43.160156 C 125.992188 42.886719 126.65625 45.03125 125.851562 46.652344 Z M 129.363281 40.132812 C 129.296875 40.191406 129.230469 40.25 129.140625 40.304688 C 128.484375 41.132812 127.496094 41.769531 126.433594 41.761719 C 125.152344 41.757812 124.121094 40.757812 123.949219 39.523438 C 123.886719 38.992188 123.988281 38.507812 124.234375 38.0625 C 124.167969 38.121094 124.09375 38.164062 124.019531 38.210938 C 123.972656 38.234375 123.84375 38.085938 123.628906 37.929688 C 123.898438 37.792969 124.054688 37.679688 124.21875 37.648438 C 124.257812 37.644531 124.324219 37.726562 124.394531 37.808594 C 125.054688 36.855469 126.351562 36.21875 127.550781 36.1875 C 127.722656 36.167969 127.894531 36.152344 128.050781 36.140625 C 128.484375 36.152344 128.859375 36.339844 129.148438 36.59375 C 129.246094 36.65625 129.335938 36.707031 129.421875 36.78125 C 130.441406 37.664062 130.277344 39.257812 129.363281 40.132812 Z M 180.769531 50.511719 C 179.671875 49.046875 178.300781 47.253906 177.710938 46.242188 L 177.695312 46.210938 C 174.78125 42.503906 171.6875 38.378906 171.292969 37.738281 C 170.789062 36.976562 170.332031 36.332031 169.878906 35.726562 C 169.59375 35.347656 169.320312 34.980469 169.019531 34.605469 C 168.644531 34.136719 168.277344 33.644531 167.933594 33.15625 C 167.847656 33.042969 167.75 32.917969 167.640625 32.761719 C 167.21875 32.175781 166.597656 31.285156 165.925781 30.863281 C 165.289062 30.46875 164.546875 30.65625 164.203125 30.835938 L 164.1875 30.84375 L 164.171875 30.855469 C 163.472656 31.324219 162.746094 31.785156 162.058594 32.246094 C 160.761719 33.085938 159.425781 33.964844 158.15625 34.886719 C 156.179688 36.34375 154.195312 37.886719 152.292969 39.359375 C 151.746094 39.777344 151.226562 40.179688 150.695312 40.59375 L 150.261719 40.925781 C 147.929688 42.710938 145.515625 44.5625 143.332031 46.605469 C 143.304688 46.621094 143.28125 46.65625 143.246094 46.699219 C 143.089844 46.847656 142.941406 46.976562 142.785156 47.128906 C 142.667969 47.238281 142.5625 47.339844 142.453125 47.464844 C 142.386719 47.523438 142.34375 47.589844 142.273438 47.648438 C 140.21875 49.796875 138.824219 52.25 140.894531 54.828125 C 140.972656 54.925781 141.011719 55.023438 141.007812 55.125 L 141.003906 55.191406 L 141.03125 55.234375 C 141.132812 55.378906 141.253906 55.511719 141.355469 55.652344 C 142.046875 56.523438 142.738281 57.398438 143.421875 58.253906 C 143.71875 58.628906 144.011719 59.023438 144.308594 59.394531 C 144.371094 59.464844 144.414062 59.539062 144.480469 59.621094 C 144.59375 59.777344 144.722656 59.925781 144.832031 60.082031 C 144.976562 60.261719 145.109375 60.449219 145.253906 60.628906 C 147.554688 63.636719 149.710938 66.570312 151.769531 69.542969 C 152.140625 70.074219 152.515625 70.648438 152.878906 71.203125 C 154.050781 72.96875 155.25 74.78125 156.769531 76.203125 L 156.84375 76.261719 L 156.941406 76.222656 C 159.027344 75.617188 161.078125 74.988281 163.03125 73.847656 C 163.125 73.792969 163.230469 73.734375 163.320312 73.679688 C 165.1875 72.53125 175.515625 64.910156 180.601562 59.699219 C 180.386719 59.539062 180.222656 59.433594 180.066406 59.300781 C 180.429688 59.089844 180.753906 58.777344 181.136719 58.699219 C 181.230469 58.683594 181.347656 58.714844 181.457031 58.796875 C 182.691406 57.429688 183.453125 56.296875 183.445312 55.589844 L 183.453125 55.566406 L 183.445312 55.550781 C 183.210938 54.695312 182.90625 53.757812 182.316406 52.746094 C 182.175781 52.363281 181.53125 51.503906 180.769531 50.511719 Z M 161.996094 32.832031 C 162.09375 32.691406 162.253906 32.578125 162.386719 32.460938 C 162.472656 32.574219 162.644531 32.695312 162.613281 32.777344 C 162.574219 32.917969 162.429688 33.023438 162.269531 33.238281 C 162.132812 33.035156 161.972656 32.863281 161.996094 32.832031 Z M 151.433594 47.957031 C 151.632812 48.125 151.765625 48.25 151.898438 48.371094 C 151.605469 48.460938 151.316406 48.589844 151.03125 48.65625 C 150.976562 48.667969 150.878906 48.503906 150.796875 48.429688 C 150.988281 48.277344 151.195312 48.136719 151.433594 47.957031 Z M 148.722656 56.683594 C 148.132812 56.683594 147.59375 56.492188 147.117188 56.160156 C 146.921875 56.03125 146.746094 55.871094 146.585938 55.703125 C 146.417969 55.515625 146.253906 55.308594 146.121094 55.082031 C 146.023438 54.914062 145.933594 54.726562 145.867188 54.542969 C 145.820312 54.425781 145.789062 54.304688 145.757812 54.179688 C 145.714844 53.964844 145.683594 53.738281 145.683594 53.496094 C 145.664062 53.425781 145.667969 53.363281 145.65625 53.308594 C 145.636719 53.136719 145.621094 52.964844 145.625 52.800781 C 145.617188 52.582031 145.652344 52.359375 145.683594 52.136719 C 145.738281 51.882812 145.824219 51.609375 145.964844 51.367188 C 146.09375 51.128906 146.238281 50.925781 146.445312 50.722656 C 147.550781 49.589844 149.253906 49.652344 150.476562 50.496094 C 151.371094 50.808594 152.121094 51.644531 152.367188 52.554688 C 152.828125 54.25 151.921875 56.074219 150.207031 56.585938 C 149.722656 56.726562 149.253906 56.757812 148.808594 56.695312 C 148.785156 56.6875 148.761719 56.679688 148.722656 56.683594 Z M 163.480469 66.949219 C 163.480469 67.191406 163.453125 67.425781 163.414062 67.671875 C 163.398438 68.269531 163.246094 68.882812 162.941406 69.40625 C 161.996094 71.09375 159.894531 71.566406 158.222656 70.71875 C 157.175781 70.175781 156.324219 69.132812 156.054688 67.976562 C 155.714844 66.453125 156.367188 65.0625 157.605469 64.15625 C 158.621094 63.421875 160.046875 63.21875 161.207031 63.675781 C 162.5625 64.222656 163.441406 65.492188 163.480469 66.949219 Z M 154.265625 49.402344 C 154.164062 49.644531 154.039062 49.878906 153.910156 50.117188 C 153.792969 49.980469 153.699219 49.855469 153.503906 49.625 C 153.734375 49.429688 153.898438 49.292969 154.085938 49.164062 C 154.085938 49.164062 154.292969 49.34375 154.265625 49.402344 Z M 164.554688 53.707031 C 165.015625 55.402344 164.109375 57.226562 162.398438 57.738281 C 161.910156 57.882812 161.441406 57.914062 160.996094 57.847656 C 160.972656 57.839844 160.941406 57.859375 160.917969 57.851562 C 159.488281 57.835938 158.292969 56.691406 157.980469 55.355469 C 157.933594 55.136719 157.90625 54.914062 157.90625 54.667969 C 157.71875 53.6875 157.898438 52.667969 158.644531 51.890625 C 159.75 50.761719 161.453125 50.820312 162.675781 51.667969 C 163.558594 51.960938 164.308594 52.796875 164.554688 53.707031 Z M 160.296875 41.59375 C 160.253906 41.378906 160.222656 41.152344 160.222656 40.910156 C 160.035156 39.925781 160.214844 38.910156 160.960938 38.132812 C 162.066406 37 163.769531 37.0625 164.992188 37.90625 C 165.882812 38.214844 166.636719 39.054688 166.882812 39.960938 C 167.34375 41.660156 166.4375 43.484375 164.722656 43.996094 C 164.238281 44.136719 163.769531 44.167969 163.324219 44.101562 C 163.300781 44.097656 163.269531 44.113281 163.246094 44.105469 C 161.789062 44.085938 160.59375 42.941406 160.296875 41.59375 Z M 173.003906 58.863281 C 171.488281 58.453125 170.496094 57.167969 170.15625 55.6875 C 169.75 53.941406 170.550781 52.320312 172.265625 51.703125 C 172.816406 51.503906 173.46875 51.46875 174.085938 51.554688 C 175.011719 51.5 175.945312 51.785156 176.683594 52.527344 C 177.261719 53.101562 177.632812 53.878906 177.78125 54.683594 C 177.78125 54.722656 177.800781 54.753906 177.792969 54.777344 C 177.9375 55.722656 177.75 56.726562 177.171875 57.507812 C 176.210938 58.753906 174.523438 59.273438 173.003906 58.863281 Z M 178.84375 58.355469 C 178.757812 58.382812 178.617188 58.246094 178.339844 58.082031 C 178.835938 57.894531 179.160156 57.746094 179.492188 57.652344 C 179.558594 57.632812 179.679688 57.804688 179.773438 57.894531 C 179.460938 58.054688 179.171875 58.222656 178.84375 58.355469 Z M 179.367188 56.675781 C 179.386719 56.742188 179.214844 56.863281 179.089844 57.039062 C 178.945312 56.859375 178.773438 56.738281 178.773438 56.632812 C 178.789062 56.523438 178.949219 56.410156 179.050781 56.308594 C 179.160156 56.429688 179.300781 56.527344 179.367188 56.675781 Z M 179.367188 56.675781 " fill-opacity="1" fill-rule="nonzero"/></g></g></g></g><g clip-path="url(#e660b7d878)"><g clip-path="url(#336284bc6f)"><g clip-path="url(#21242e701b)"><g clip-path="url(#2f978db248)"><path fill="#1bbbf4" d="M 124.808594 67.789062 C 123.742188 66.101562 122.644531 64.355469 121.804688 62.535156 L 121.78125 62.488281 L 121.722656 62.460938 C 120.414062 61.746094 119.105469 61.214844 117.980469 60.777344 L 117.957031 60.773438 L 117.929688 60.765625 C 116.488281 60.554688 115.152344 60.039062 114.285156 59.632812 L 114.261719 59.625 L 114.238281 59.621094 C 111.402344 59.25 108.476562 58.585938 105.539062 57.625 L 105.515625 57.617188 L 105.492188 57.613281 C 103.722656 57.367188 101.976562 57.191406 100.300781 57.074219 C 99.773438 57.039062 99.230469 57.050781 98.707031 57.054688 L 98.695312 57.039062 C 98.132812 57.042969 97.566406 57.050781 97 57.015625 L 96.933594 57.011719 L 96.875 57.046875 C 96.414062 57.375 96.152344 57.691406 96.007812 58.039062 L 95.976562 58.117188 L 96.019531 58.195312 C 96.410156 58.757812 96.746094 59.410156 97.035156 59.972656 C 97.203125 60.296875 97.410156 60.683594 97.613281 61.03125 C 98.429688 62.4375 99.214844 63.78125 100 65.125 C 100.253906 65.5625 100.523438 65.992188 100.78125 66.429688 L 101.113281 66.964844 C 102.148438 68.671875 103.207031 70.421875 104.089844 72.214844 L 104.097656 72.230469 L 104.109375 72.246094 C 104.738281 73.152344 105.347656 73.8125 106.03125 74.324219 C 106.574219 74.734375 107.171875 74.992188 107.65625 75.195312 L 107.664062 75.210938 L 107.691406 75.21875 C 109.597656 75.664062 111.535156 76.234375 113.246094 76.734375 L 113.390625 76.773438 C 114.863281 77.210938 116.375 77.644531 117.851562 78.019531 C 119.355469 78.398438 120.945312 78.726562 122.355469 79.015625 C 124.25 79.410156 126.183594 79.800781 128.054688 80.328125 L 128.082031 80.335938 L 128.167969 80.34375 C 128.316406 80.359375 128.445312 80.367188 128.570312 80.375 C 128.671875 80.375 128.796875 80.382812 128.933594 80.40625 C 129.511719 80.453125 130.09375 80.476562 130.398438 80.339844 C 130.445312 80.3125 130.488281 80.289062 130.519531 80.269531 C 131.066406 79.953125 131.019531 79.453125 130.902344 78.730469 C 130.886719 78.597656 130.863281 78.453125 130.835938 78.304688 C 130.835938 78.304688 130.828125 78.289062 130.835938 78.265625 L 130.839844 78.242188 C 130.839844 78.242188 130.8125 78.15625 130.800781 78.140625 L 130.785156 78.109375 C 130.253906 77.410156 129.828125 76.644531 129.4375 75.902344 C 128.308594 73.828125 127.464844 72.273438 126.675781 70.890625 C 126.121094 69.898438 125.492188 68.890625 124.871094 67.933594 Z M 103.558594 62.484375 C 103.542969 62.632812 103.503906 62.777344 103.417969 62.910156 C 103.074219 63.433594 102.261719 63.402344 101.75 63.214844 C 101.691406 63.1875 101.636719 63.160156 101.5625 63.140625 C 101.492188 63.121094 101.445312 63.109375 101.386719 63.082031 C 100.191406 62.667969 97.820312 60.867188 98.671875 59.363281 C 99.667969 57.585938 101.894531 59 102.683594 60.179688 C 102.691406 60.195312 102.691406 60.195312 102.699219 60.210938 C 102.828125 60.359375 102.957031 60.546875 103.078125 60.757812 C 103.535156 61.363281 103.785156 62.007812 103.558594 62.484375 Z M 112.308594 71.472656 C 112.402344 71.558594 112.484375 71.632812 112.582031 71.695312 C 112.484375 71.632812 112.394531 71.542969 112.308594 71.472656 Z M 115.921875 70.664062 C 116.300781 71.796875 115.746094 73.113281 114.359375 72.828125 C 114.035156 72.753906 113.46875 72.414062 112.867188 71.9375 C 112.914062 71.949219 112.960938 71.960938 112.996094 71.984375 C 113.101562 71.679688 113.167969 71.515625 113.230469 71.339844 C 112.910156 71.386719 112.597656 71.40625 112.277344 71.449219 C 111.160156 70.441406 110.101562 69.113281 110.398438 68.296875 C 110.414062 68.042969 110.515625 67.800781 110.785156 67.601562 C 111.746094 66.882812 113.269531 67.957031 114 68.585938 C 114.875 69.003906 115.628906 69.742188 115.921875 70.664062 Z M 127.929688 76.417969 C 128.007812 76.691406 128 76.960938 127.921875 77.207031 C 127.855469 77.613281 127.601562 77.984375 127.097656 78.195312 C 126.195312 78.601562 125.269531 77.988281 124.523438 77.367188 C 123.839844 76.996094 123.238281 76.457031 122.902344 75.84375 C 122.824219 75.707031 122.792969 75.585938 122.761719 75.460938 C 122.761719 75.460938 122.75 75.445312 122.75 75.445312 C 122.742188 75.390625 122.71875 75.324219 122.734375 75.273438 C 122.488281 74.402344 122.957031 73.464844 124.003906 73.480469 C 124.921875 73.492188 125.886719 74.0625 126.625 74.707031 C 127.246094 75.175781 127.738281 75.777344 127.929688 76.417969 Z M 191.613281 55.101562 L 191.4375 54.839844 L 191.402344 54.777344 C 191.3125 54.589844 190.84375 53.890625 190.347656 53.105469 C 190.613281 54.609375 187.976562 52.523438 187.0625 50.46875 C 185.945312 47.960938 187.011719 48.574219 188.15625 49.730469 L 188.066406 49.578125 L 188.050781 49.546875 C 188.03125 49.515625 188.011719 49.488281 187.996094 49.457031 C 187.96875 49.410156 187.953125 49.382812 187.917969 49.359375 C 187.292969 48.390625 186.59375 47.296875 185.84375 46.117188 C 185.785156 46.191406 185.699219 46.28125 185.609375 46.375 C 185.429688 46.136719 185.328125 45.992188 185.222656 45.851562 C 185.320312 45.773438 185.433594 45.6875 185.53125 45.609375 C 184.492188 43.96875 183.359375 42.199219 182.242188 40.421875 C 181.882812 39.84375 181.539062 39.253906 181.167969 38.617188 C 180.667969 37.757812 180.164062 36.855469 179.601562 36.03125 C 179.210938 35.46875 178.648438 35.027344 177.960938 34.71875 C 177.589844 34.570312 177.253906 34.339844 176.886719 34.128906 C 176.722656 34.023438 176.558594 33.917969 176.382812 33.816406 C 175.320312 33.183594 174.230469 32.601562 173.160156 32.09375 C 172.910156 31.976562 172.648438 31.84375 172.390625 31.710938 C 170.996094 31.027344 169.414062 30.226562 167.839844 29.929688 L 167.472656 29.859375 L 167.644531 30.1875 C 167.855469 30.589844 168.0625 30.976562 168.265625 31.363281 C 168.617188 32.03125 168.964844 32.695312 169.34375 33.347656 C 169.921875 34.34375 170.542969 35.339844 171.050781 36.175781 C 171.5 36.804688 171.917969 37.453125 172.300781 38.039062 C 172.785156 38.769531 174.257812 40.664062 175.972656 42.839844 C 176.597656 43.632812 177.238281 44.453125 177.878906 45.273438 L 177.898438 45.304688 L 177.929688 45.324219 C 177.9375 45.339844 177.960938 45.347656 177.960938 45.347656 C 178.539062 45.921875 182.519531 50.585938 183.050781 51.429688 L 183.058594 51.445312 L 183.070312 51.457031 C 183.328125 51.691406 183.554688 51.945312 183.785156 52.195312 C 184.078125 52.53125 184.398438 52.871094 184.746094 53.152344 C 185.195312 53.539062 185.679688 53.84375 186.160156 54.148438 C 186.613281 54.433594 187.070312 54.734375 187.46875 55.066406 C 187.476562 55.082031 187.5 55.089844 187.511719 55.105469 L 187.535156 55.148438 C 187.535156 55.148438 187.90625 55.296875 188.070312 55.367188 C 188.140625 55.386719 188.199219 55.414062 188.277344 55.445312 C 188.292969 55.4375 188.308594 55.429688 188.332031 55.433594 C 188.386719 55.421875 188.460938 55.480469 188.519531 55.546875 C 188.753906 55.636719 188.996094 55.738281 189.230469 55.824219 C 189.519531 55.9375 189.824219 56.042969 190.105469 56.140625 L 190.152344 56.15625 C 190.203125 56.167969 190.242188 56.164062 190.28125 56.203125 C 190.292969 56.214844 190.316406 56.222656 190.316406 56.222656 L 190.324219 56.238281 L 190.355469 56.257812 C 190.960938 56.492188 191.679688 56.785156 192.371094 57.171875 C 192.394531 57.175781 192.402344 57.191406 192.402344 57.191406 L 192.664062 56.976562 C 192.453125 56.332031 192.027344 55.710938 191.613281 55.101562 Z M 176.324219 38.808594 C 176.53125 40.59375 174.425781 39.066406 173.9375 38.542969 C 173.269531 37.820312 172.742188 36.949219 172.28125 36.085938 C 171.988281 35.550781 171.515625 34.671875 171.734375 34.035156 C 171.925781 33.460938 172.316406 33.535156 172.746094 33.851562 C 172.820312 33.808594 172.9375 33.800781 173.023438 33.875 C 173.894531 34.539062 174.523438 35.40625 175.078125 36.320312 C 175.53125 37.027344 176.234375 37.953125 176.324219 38.808594 Z M 185.992188 50.300781 C 187.832031 54.125 183.605469 51.613281 182.492188 48.898438 C 181.304688 46.027344 182.699219 46.714844 184.101562 48.003906 C 184 48.285156 183.890625 48.550781 183.792969 48.832031 C 184.125 48.777344 184.445312 48.734375 184.78125 48.679688 C 185.3125 49.28125 185.792969 49.890625 185.992188 50.300781 Z M 184.09375 48.027344 C 184.195312 48.128906 184.3125 48.222656 184.421875 48.34375 C 184.3125 48.222656 184.210938 48.121094 184.09375 48.027344 Z M 180.679688 40.707031 C 180.042969 41.5625 179.023438 40.234375 178.648438 39.765625 C 177.847656 38.773438 176.894531 37.488281 176.859375 36.171875 C 176.859375 36.070312 176.941406 36 177.046875 36.003906 C 178.21875 35.785156 179.230469 37.035156 179.871094 37.855469 C 180.34375 38.492188 181.300781 39.855469 180.679688 40.707031 Z M 103.84375 42.800781 C 103.84375 42.761719 103.839844 42.722656 103.847656 42.699219 C 103.902344 42.625 103.976562 42.542969 104.035156 42.46875 C 104.050781 42.460938 104.050781 42.460938 104.058594 42.4375 C 104.117188 42.359375 104.199219 42.292969 104.269531 42.210938 C 104.335938 42.253906 104.378906 42.289062 104.378906 42.328125 C 104.367188 42.515625 104.214844 42.707031 104.09375 42.878906 C 104.046875 42.90625 103.847656 42.839844 103.84375 42.800781 Z M 127.375 38.882812 C 127.257812 39.132812 127.148438 39.398438 126.996094 39.691406 C 126.773438 39.660156 126.621094 39.644531 126.488281 39.625 C 126.582031 39.367188 126.617188 39.082031 126.785156 38.882812 C 126.867188 38.773438 127.171875 38.878906 127.375 38.882812 Z M 126.105469 76.527344 C 126.058594 76.65625 126.035156 76.832031 125.945312 76.882812 C 125.839844 76.945312 125.65625 76.910156 125.359375 76.921875 C 125.515625 76.667969 125.574219 76.492188 125.691406 76.445312 C 125.804688 76.398438 125.960938 76.488281 126.105469 76.527344 Z M 126.914062 75.511719 C 126.855469 75.726562 126.808594 75.957031 126.71875 76.152344 C 126.695312 76.183594 126.480469 76.125 125.933594 76.0625 C 126.15625 75.746094 126.269531 75.519531 126.449219 75.375 C 126.523438 75.332031 126.746094 75.464844 126.914062 75.511719 Z M 175.640625 53.421875 C 175.417969 53.347656 175.21875 53.324219 175.164062 53.230469 C 175.113281 53.140625 175.203125 52.945312 175.242188 52.804688 C 175.394531 52.855469 175.582031 52.867188 175.699219 52.960938 C 175.75 53.011719 175.660156 53.207031 175.640625 53.421875 Z M 176.679688 53.808594 C 176.5 54.09375 176.332031 54.394531 176.128906 54.675781 C 176.085938 54.738281 175.878906 54.699219 175.558594 54.703125 C 175.875 54.273438 176.078125 53.996094 176.3125 53.738281 C 176.355469 53.671875 176.558594 53.777344 176.679688 53.808594 Z M 171.1875 54.074219 C 171.351562 54.179688 171.53125 54.277344 171.980469 54.5625 C 171.890625 54.652344 171.777344 54.84375 171.625 54.890625 C 171.539062 54.921875 171.289062 54.804688 171.25 54.703125 C 171.183594 54.519531 171.207031 54.285156 171.1875 54.074219 Z M 177.769531 54.667969 C 177.773438 54.707031 177.789062 54.738281 177.785156 54.761719 C 177.785156 54.761719 177.792969 54.777344 177.777344 54.785156 C 177.753906 54.78125 177.730469 54.773438 177.691406 54.777344 C 177.738281 54.75 177.75 54.703125 177.769531 54.667969 Z M 183.183594 47.300781 C 183.164062 47.4375 183.148438 47.585938 183.113281 47.808594 C 182.914062 47.742188 182.691406 47.710938 182.679688 47.65625 C 182.648438 47.53125 182.714844 47.332031 182.796875 47.265625 C 182.878906 47.195312 183.050781 47.277344 183.183594 47.300781 Z M 183.515625 50.066406 C 183.507812 50.191406 183.492188 50.339844 183.472656 50.476562 C 183.34375 50.328125 183.222656 50.152344 183.109375 49.996094 C 183.125 49.988281 183.125 49.988281 183.132812 49.964844 C 183.167969 49.921875 183.523438 50.039062 183.515625 50.066406 Z M 183.515625 50.066406 " fill-opacity="1" fill-rule="nonzero"/></g></g></g></g><g clip-path="url(#8c1727f158)"><g clip-path="url(#72e6616094)"><g clip-path="url(#0b2616165f)"><g clip-path="url(#44de50f271)"><path fill="#7a49a9" d="M 137.007812 38.574219 L 136.988281 38.542969 L 136.972656 38.511719 C 136.734375 38.246094 136.457031 37.941406 136.171875 37.664062 L 136.113281 37.597656 L 136.019531 37.609375 C 135.777344 37.648438 135.515625 37.761719 135.230469 37.929688 C 134.941406 38.097656 134.714844 38.269531 134.613281 38.371094 L 134.582031 38.386719 L 134.558594 38.417969 C 134.117188 39.46875 133.527344 40.480469 132.960938 41.457031 L 132.839844 41.667969 C 132.742188 41.847656 132.648438 42.003906 132.550781 42.183594 C 131.582031 43.902344 130.5 45.605469 129.472656 47.253906 L 129.289062 47.566406 C 128.746094 48.449219 128.183594 49.324219 127.640625 50.207031 L 126.917969 51.375 C 125.75 53.273438 124.765625 54.859375 123.765625 56.453125 L 123.75 56.460938 L 123.667969 56.632812 C 123.617188 56.722656 123.582031 56.800781 123.542969 56.90625 L 123.535156 56.929688 C 123.382812 57.261719 123.238281 57.570312 123.117188 57.882812 L 123.109375 57.90625 L 123.105469 57.933594 C 123.09375 58.160156 123.0625 58.382812 123.027344 58.605469 L 123.011719 58.714844 C 122.9375 59.386719 122.859375 60.019531 122.929688 60.664062 C 123 61.273438 123.222656 61.832031 123.4375 62.371094 L 123.492188 62.503906 L 123.503906 62.519531 C 124.632812 64.105469 125.582031 65.839844 126.488281 67.539062 C 126.878906 68.242188 127.203125 68.863281 127.5625 69.484375 C 129.089844 72.175781 130.511719 74.890625 131.699219 77.171875 L 131.710938 77.1875 L 131.71875 77.203125 C 131.855469 77.367188 131.96875 77.5625 132.042969 77.761719 L 132.070312 77.808594 L 132.128906 77.835938 C 132.503906 78.0625 132.996094 78.140625 133.476562 78.019531 C 133.761719 77.957031 134.003906 77.8125 134.285156 77.667969 L 134.300781 77.660156 C 134.527344 77.527344 134.726562 77.414062 134.964844 77.335938 L 134.992188 77.316406 L 135.015625 77.285156 C 135.289062 76.984375 135.550781 76.667969 135.8125 76.316406 C 136.117188 75.832031 136.398438 75.40625 136.691406 74.96875 C 137.253906 74.015625 137.761719 72.972656 138.257812 71.972656 L 138.292969 71.894531 C 138.535156 71.40625 138.800781 70.847656 139.050781 70.335938 C 139.421875 69.617188 139.773438 68.863281 140.128906 68.148438 L 140.207031 68.003906 C 141.085938 66.195312 141.980469 64.316406 143.066406 62.628906 L 143.082031 62.582031 C 143.246094 62.101562 143.433594 61.585938 143.605469 61.082031 C 142.320312 59.117188 141.089844 57.183594 139.890625 55.230469 C 139.875 55.199219 139.847656 55.15625 139.84375 55.117188 L 139.835938 55.0625 L 139.792969 55.027344 C 138.761719 54.027344 138.28125 52.890625 138.332031 51.648438 C 138.417969 49.773438 139.75 47.84375 141.394531 46.136719 C 141.191406 45.789062 141 45.457031 140.804688 45.125 C 140.398438 44.429688 139.953125 43.738281 139.484375 43 C 138.636719 41.613281 137.660156 40.113281 137.007812 38.574219 Z M 125.886719 62.566406 C 124.96875 62.3125 124.789062 61.242188 124.816406 60.414062 C 124.867188 59.070312 125.929688 56.609375 127.691406 57.160156 C 128.582031 57.433594 128.898438 58.5 128.84375 59.34375 C 128.8125 59.746094 128.714844 60.167969 128.566406 60.578125 C 128.488281 60.824219 128.394531 61.082031 128.273438 61.296875 C 127.8125 62.070312 126.855469 62.832031 125.886719 62.566406 Z M 135.875 70.429688 C 136.234375 71.433594 136.25 72.679688 135.5625 73.484375 C 135.285156 73.808594 134.941406 73.988281 134.597656 74.027344 C 134.226562 74.222656 133.8125 74.28125 133.382812 74.066406 C 132.703125 73.734375 132.449219 72.988281 132.40625 72.285156 C 132.355469 71.570312 132.527344 70.71875 132.917969 70.027344 C 133.09375 69.597656 133.371094 69.234375 133.726562 69.046875 C 133.789062 69.011719 133.84375 69 133.90625 69.003906 C 133.921875 68.996094 133.9375 68.988281 133.953125 68.976562 C 133.980469 68.960938 133.996094 68.953125 134.035156 68.949219 C 134.035156 68.949219 134.050781 68.941406 134.050781 68.941406 C 134.535156 68.757812 135.082031 68.824219 135.453125 69.253906 C 135.742188 69.574219 135.847656 70 135.875 70.429688 Z M 137.234375 58.09375 C 137 58.878906 136.496094 59.679688 135.757812 60.089844 C 134.898438 60.570312 134.015625 60.132812 133.738281 59.242188 C 133.5625 58.695312 133.53125 58.046875 133.632812 57.421875 C 133.585938 56.4375 133.898438 55.40625 134.59375 54.957031 C 135.394531 54.453125 136.421875 54.785156 136.925781 55.542969 C 137.394531 56.28125 137.464844 57.273438 137.234375 58.09375 Z M 138.964844 58.382812 C 138.726562 58.421875 138.421875 58.113281 137.8125 57.800781 C 138.542969 57.617188 138.917969 57.5 139.300781 57.457031 C 139.457031 57.449219 139.621094 57.65625 139.785156 57.765625 C 139.523438 57.976562 139.277344 58.324219 138.964844 58.382812 Z M 137.382812 42.039062 C 137.726562 43.253906 137.195312 44.820312 136.316406 45.714844 C 135.8125 46.210938 135.082031 46.597656 134.402344 46.265625 C 133.820312 45.996094 133.5625 45.277344 133.539062 44.683594 C 133.535156 44.21875 133.605469 43.753906 133.789062 43.300781 C 133.910156 42.5625 134.195312 41.832031 134.546875 41.324219 C 135.46875 40.015625 136.988281 40.667969 137.382812 42.039062 Z M 192.972656 58.480469 C 192.605469 58.410156 192.242188 58.238281 191.933594 58.09375 C 191.558594 57.90625 191.195312 57.695312 190.757812 57.402344 L 190.734375 57.394531 L 190.710938 57.390625 C 190.390625 57.292969 190.117188 57.207031 189.835938 57.109375 L 189.8125 57.101562 L 189.789062 57.097656 C 189.6875 57.09375 189.597656 57.085938 189.488281 57.070312 C 189.980469 57.429688 190.433594 57.753906 190.878906 58.058594 C 190.773438 58.121094 190.648438 58.253906 190.574219 58.238281 C 189.84375 57.957031 189.117188 57.648438 188.375 57.355469 C 188.523438 57.226562 188.683594 57.113281 188.832031 56.988281 C 188.585938 56.949219 188.355469 56.898438 188.097656 56.847656 L 188.050781 56.832031 L 188.003906 56.859375 C 187.9375 56.878906 187.867188 56.902344 187.804688 56.898438 C 187.480469 56.863281 187.148438 56.75 186.792969 56.554688 L 186.757812 56.535156 L 186.71875 56.535156 C 186.175781 56.46875 185.710938 56.578125 185.207031 56.871094 C 184.84375 57.082031 184.480469 57.398438 184.191406 57.667969 C 184.175781 57.675781 184.160156 57.683594 184.128906 57.703125 C 184.113281 57.710938 184.097656 57.71875 184.085938 57.730469 L 184.015625 57.75 L 183.988281 57.804688 C 183.257812 59.101562 181.90625 60.195312 180.820312 61.089844 C 178.402344 63.066406 176.203125 64.835938 173.925781 66.503906 C 173.527344 66.796875 173.167969 67.089844 172.847656 67.375 C 171.195312 68.824219 168.472656 70.980469 167.304688 71.90625 L 166.964844 72.160156 L 166.949219 72.171875 C 165.632812 73.707031 164.089844 75.277344 161.960938 77.265625 C 161.761719 77.484375 161.578125 77.730469 161.523438 77.945312 C 161.460938 78.226562 161.570312 78.445312 161.855469 78.621094 L 161.902344 78.636719 C 163.179688 78.90625 164.449219 79.03125 165.542969 79.125 C 168.636719 79.386719 171.230469 78.15625 173.355469 76.917969 C 173.535156 76.8125 173.734375 76.699219 173.914062 76.59375 C 176.292969 75.167969 178.804688 73.519531 181.589844 71.570312 C 182.660156 70.828125 190.367188 64.328125 191.992188 61.886719 C 192.078125 61.753906 192.15625 61.648438 192.222656 61.546875 L 192.238281 61.539062 L 192.375 61.21875 C 192.722656 60.386719 193.078125 59.53125 193.105469 58.707031 L 193.101562 58.566406 Z M 164.636719 77.46875 C 164.242188 77.59375 163.238281 77.898438 162.910156 77.503906 C 162.65625 77.207031 163.152344 76.734375 163.34375 76.539062 C 163.863281 76.035156 164.472656 75.621094 165.066406 75.210938 C 165.414062 74.96875 165.769531 74.742188 166.148438 74.523438 C 166.496094 74.316406 169.363281 72.445312 170.617188 72.402344 C 171.019531 72.390625 170.753906 72.910156 170.636719 73.058594 C 170.410156 73.332031 170.140625 73.570312 169.882812 73.820312 C 169.277344 74.417969 168.617188 74.964844 167.953125 75.492188 C 166.949219 76.28125 165.867188 77.074219 164.636719 77.46875 Z M 168.351562 77.222656 C 168.03125 77.332031 167.195312 77.574219 166.925781 77.246094 C 166.71875 77 167.121094 76.605469 167.289062 76.445312 C 167.71875 76.035156 168.222656 75.679688 168.714844 75.332031 C 169.007812 75.140625 169.300781 74.949219 169.605469 74.773438 C 169.894531 74.605469 172.277344 73.054688 173.328125 73.007812 C 173.664062 72.992188 173.433594 73.433594 173.339844 73.546875 C 173.148438 73.78125 172.917969 73.976562 172.710938 74.175781 C 172.207031 74.671875 171.664062 75.132812 171.101562 75.5625 C 170.285156 76.21875 169.375 76.890625 168.351562 77.222656 Z M 176.488281 73.757812 C 176.289062 73.972656 176.082031 74.175781 175.875 74.378906 C 175.371094 74.875 174.839844 75.324219 174.277344 75.753906 C 173.441406 76.402344 172.570312 77.074219 171.539062 77.390625 C 171.214844 77.5 170.382812 77.742188 170.117188 77.429688 C 169.914062 77.183594 170.3125 76.789062 170.46875 76.636719 C 170.898438 76.226562 171.402344 75.871094 171.886719 75.550781 C 172.179688 75.355469 172.472656 75.164062 172.777344 74.988281 C 173.066406 74.820312 175.4375 73.277344 176.460938 73.226562 C 176.800781 73.210938 176.582031 73.640625 176.488281 73.757812 Z M 187.25 57.96875 C 187.320312 57.949219 187.550781 58.238281 187.535156 58.25 C 187.355469 58.496094 187.15625 58.710938 186.914062 58.996094 C 186.570312 58.75 186.304688 58.578125 186.066406 58.414062 C 186.46875 58.261719 186.847656 58.082031 187.25 57.96875 Z M 178.113281 66.71875 C 177.71875 66.84375 176.714844 67.144531 176.386719 66.753906 C 176.128906 66.453125 176.628906 65.984375 176.820312 65.789062 C 177.339844 65.285156 177.949219 64.867188 178.542969 64.460938 C 178.890625 64.21875 179.246094 63.992188 179.625 63.769531 C 179.972656 63.566406 182.839844 61.691406 184.09375 61.648438 C 184.496094 61.640625 184.230469 62.160156 184.113281 62.308594 C 183.886719 62.582031 183.617188 62.820312 183.359375 63.070312 C 182.753906 63.667969 182.09375 64.210938 181.429688 64.742188 C 180.425781 65.53125 179.351562 66.335938 178.113281 66.71875 Z M 181.828125 66.472656 C 181.503906 66.582031 180.671875 66.824219 180.398438 66.496094 C 180.195312 66.25 180.59375 65.855469 180.765625 65.695312 C 181.195312 65.285156 181.699219 64.929688 182.1875 64.582031 C 182.484375 64.390625 182.777344 64.199219 183.082031 64.023438 C 183.371094 63.855469 185.753906 62.300781 186.804688 62.257812 C 187.140625 62.242188 186.910156 62.679688 186.816406 62.796875 C 186.625 63.03125 186.394531 63.226562 186.1875 63.425781 C 185.683594 63.921875 185.140625 64.382812 184.578125 64.8125 C 183.769531 65.484375 182.863281 66.15625 181.828125 66.472656 Z M 189.972656 63.023438 C 189.773438 63.238281 189.566406 63.441406 189.359375 63.640625 C 188.855469 64.136719 188.328125 64.589844 187.765625 65.015625 C 186.925781 65.667969 186.054688 66.335938 185.023438 66.65625 C 184.699219 66.761719 183.867188 67.007812 183.601562 66.695312 C 183.398438 66.449219 183.796875 66.054688 183.953125 65.902344 C 184.382812 65.488281 184.886719 65.136719 185.371094 64.8125 C 185.664062 64.621094 185.960938 64.429688 186.261719 64.253906 C 186.550781 64.085938 188.921875 62.542969 189.945312 62.488281 C 190.300781 62.46875 190.066406 62.90625 189.972656 63.023438 Z M 126.632812 61.058594 C 126.667969 61.21875 126.621094 61.386719 126.625 61.566406 C 126.492188 61.546875 126.371094 61.515625 126.148438 61.480469 C 126.234375 61.25 126.289062 61.097656 126.34375 60.941406 C 126.4375 60.96875 126.621094 61.003906 126.632812 61.058594 Z M 126.832031 60.007812 C 126.699219 60.089844 126.5 60.0625 126.148438 60.085938 C 126.308594 59.769531 126.351562 59.5625 126.476562 59.46875 C 126.570312 59.414062 126.816406 59.492188 126.902344 59.605469 C 126.972656 59.6875 126.910156 59.964844 126.832031 60.007812 Z M 126.832031 60.007812 " fill-opacity="1" fill-rule="nonzero"/></g></g></g></g><g fill="#004aad" fill-opacity="1"><g transform="translate(26.465939, 114.298576)"><g><path d="M 3.359375 -20.75 C 3.359375 -20.359375 3.40625 -19.984375 3.359375 -19.5625 C 3.359375 -19.171875 3.4375 -18.796875 3.4375 -18.359375 C 3.4375 -18.03125 3.359375 -17.59375 3.359375 -17.21875 C 3.359375 -16.84375 3.4375 -16.453125 3.4375 -16.03125 C 3.4375 -15.640625 3.40625 -15.265625 3.40625 -14.875 C 3.40625 -14.453125 3.28125 -14.078125 3.28125 -13.6875 C 3.28125 -13.3125 3.3125 -12.875 3.3125 -12.5 C 3.3125 -12.109375 3.3125 -11.734375 3.3125 -11.359375 C 3.3125 -10.96875 3.28125 -10.546875 3.28125 -10.15625 C 3.234375 -9.78125 3.359375 -9.390625 3.359375 -9.015625 C 3.359375 -8.59375 3.40625 -8.203125 3.40625 -7.859375 C 3.40625 -7.4375 3.359375 -7.0625 3.359375 -6.671875 C 3.359375 -6.25 3.359375 -5.859375 3.359375 -5.53125 C 3.40625 -5.0625 3.3125 -4.671875 3.3125 -4.34375 C 3.359375 -4 3.40625 -3.578125 3.40625 -3.140625 C 3.40625 -2.71875 3.3125 -2.296875 3.3125 -1.90625 C 3.3125 -1.453125 3.3125 -1.015625 3.3125 -0.6875 C 3.28125 -0.296875 3.609375 0.046875 4.03125 0.046875 C 4.375 0.046875 4.796875 0 5.234375 0 C 5.65625 0 6.03125 0 6.46875 0 C 6.890625 0 7.3125 -0.046875 7.6875 -0.046875 C 8.078125 0 8.453125 0 8.84375 0.046875 C 9.21875 0.046875 9.65625 0 10.03125 0 C 10.421875 0 10.796875 0.078125 11.1875 0.078125 C 11.609375 0.078125 11.984375 0 12.375 0 C 12.75 0 13.140625 0 13.5625 0 C 13.9375 -0.046875 14.328125 0.046875 14.703125 0 C 15.09375 0 15.515625 -0.078125 15.90625 -0.125 C 16.328125 -0.125 16.75 -0.046875 17.140625 -0.046875 C 17.5625 -0.078125 17.984375 -0.046875 18.359375 -0.125 C 18.75 -0.171875 19.125 -0.34375 19.5625 -0.515625 C 19.8125 -0.59375 20.03125 -0.890625 20.0625 -1.28125 C 20.15625 -1.578125 20.109375 -1.953125 20.109375 -2.25 C 20.109375 -2.515625 20.0625 -2.96875 20.0625 -3.359375 C 20.0625 -3.828125 19.984375 -4.25 19.6875 -4.375 C 19.34375 -4.546875 18.921875 -4.671875 18.453125 -4.71875 C 18.03125 -4.765625 17.59375 -4.796875 17.171875 -4.796875 C 16.796875 -4.796875 16.453125 -4.671875 16.109375 -4.671875 C 15.765625 -4.671875 15.4375 -4.765625 15.046875 -4.765625 C 14.703125 -4.71875 14.375 -4.640625 14.03125 -4.640625 C 13.6875 -4.640625 13.34375 -4.59375 12.96875 -4.59375 C 12.625 -4.59375 12.28125 -4.671875 11.953125 -4.671875 C 11.609375 -4.671875 11.21875 -4.671875 10.890625 -4.671875 C 10.546875 -4.671875 10.15625 -4.71875 9.828125 -4.71875 C 9.4375 -4.71875 9.09375 -4.640625 8.796875 -4.671875 C 8.15625 -4.671875 8.125 -4.296875 7.828125 -4.71875 C 7.4375 -5.265625 7.734375 -5.234375 7.734375 -6 C 7.78125 -6.375 7.859375 -6.84375 7.90625 -7.3125 C 7.90625 -7.734375 7.90625 -8.203125 7.90625 -8.625 C 7.90625 -9.015625 7.953125 -9.390625 8 -9.828125 C 8 -10.203125 7.90625 -10.59375 7.90625 -10.96875 C 7.90625 -11.390625 7.953125 -11.78125 8 -12.15625 C 8 -12.546875 7.953125 -12.96875 7.953125 -13.34375 C 7.953125 -13.734375 8.078125 -14.109375 8.125 -14.546875 C 8.125 -14.921875 7.953125 -15.3125 8 -15.6875 C 8 -16.109375 8.078125 -16.5 8.078125 -16.875 C 8.078125 -17.265625 8.125 -17.6875 8.125 -18.0625 C 8.125 -18.453125 8.078125 -18.828125 8.078125 -19.265625 C 8.078125 -19.640625 8.125 -20.03125 8.125 -20.40625 C 8.125 -20.828125 8.15625 -21.21875 8.15625 -21.59375 C 8.15625 -21.984375 8.125 -22.40625 8.125 -22.78125 C 8.125 -23.125 8.203125 -23.46875 8.203125 -23.8125 C 8.203125 -24.15625 8.203125 -24.484375 8.203125 -24.828125 C 8.25 -25.171875 8.125 -25.515625 8.125 -25.84375 C 8.078125 -26.234375 7.859375 -26.40625 7.53125 -26.53125 C 7.234375 -26.65625 6.890625 -26.828125 6.546875 -26.828125 C 6.171875 -26.875 5.78125 -26.78125 5.5625 -26.75 C 5.234375 -26.703125 4.671875 -26.78125 4.203125 -26.609375 C 3.828125 -26.53125 3.53125 -26.3125 3.484375 -25.71875 C 3.4375 -25.34375 3.40625 -24.921875 3.4375 -24.453125 C 3.4375 -24.015625 3.4375 -23.59375 3.4375 -23.171875 C 3.4375 -22.75 3.40625 -22.28125 3.40625 -21.890625 C 3.40625 -21.59375 3.40625 -21.21875 3.359375 -20.75 Z M 3.359375 -20.75 "/></g></g></g><g fill="#004aad" fill-opacity="1"><g transform="translate(47.590851, 114.298576)"><g><path d="M 2.9375 -17.4375 C 2.9375 -17.046875 2.84375 -16.671875 2.84375 -16.234375 C 2.84375 -15.859375 2.890625 -15.46875 2.890625 -15.09375 C 2.890625 -14.703125 2.890625 -14.28125 2.890625 -13.90625 C 2.890625 -13.515625 2.890625 -13.140625 2.890625 -12.71875 C 2.890625 -12.328125 2.890625 -11.953125 2.890625 -11.5625 C 2.890625 -11.140625 2.9375 -10.75 2.9375 -10.421875 C 2.9375 -9.984375 2.84375 -9.5625 2.84375 -9.21875 C 2.84375 -8.765625 2.84375 -8.375 2.84375 -8.078125 C 2.8125 -7.65625 2.84375 -7.265625 2.890625 -6.890625 C 2.9375 -6.5 2.96875 -6.078125 3.015625 -5.703125 C 3.109375 -5.3125 3.234375 -4.9375 3.359375 -4.59375 C 3.484375 -4.203125 3.609375 -3.828125 3.78125 -3.484375 C 3.953125 -3.109375 4.203125 -2.8125 4.46875 -2.515625 C 4.671875 -2.203125 4.9375 -1.875 5.234375 -1.609375 C 5.484375 -1.3125 5.828125 -1.140625 6.171875 -0.9375 C 6.5 -0.71875 6.796875 -0.46875 7.1875 -0.296875 C 7.53125 -0.125 7.90625 -0.078125 8.296875 0.046875 C 8.625 0.171875 9.015625 0.25 9.359375 0.34375 C 9.734375 0.421875 10.125 0.515625 10.5 0.546875 C 10.890625 0.59375 11.265625 0.6875 11.609375 0.6875 C 11.984375 0.6875 12.375 0.640625 12.75 0.59375 C 13.140625 0.59375 13.515625 0.546875 13.90625 0.46875 C 14.28125 0.375 14.671875 0.296875 15.015625 0.171875 C 15.34375 0.046875 15.6875 -0.171875 16.03125 -0.34375 C 16.375 -0.515625 16.703125 -0.6875 17 -0.890625 C 17.34375 -1.109375 17.5625 -1.453125 17.859375 -1.703125 C 18.109375 -1.953125 18.453125 -2.171875 18.703125 -2.46875 C 18.921875 -2.765625 19.046875 -3.140625 19.265625 -3.484375 C 19.421875 -3.78125 19.6875 -4.125 19.8125 -4.46875 C 19.9375 -4.796875 20.03125 -5.1875 20.109375 -5.5625 C 20.1875 -5.953125 20.234375 -6.328125 20.28125 -6.71875 C 20.328125 -7.09375 20.328125 -7.484375 20.328125 -7.859375 C 20.328125 -8.25 20.328125 -8.625 20.328125 -8.96875 C 20.328125 -9.390625 20.328125 -9.78125 20.328125 -10.125 C 20.328125 -10.5 20.359375 -10.890625 20.359375 -11.21875 C 20.359375 -11.65625 20.28125 -11.984375 20.328125 -12.328125 C 20.328125 -12.75 20.40625 -13.140625 20.40625 -13.4375 C 20.40625 -13.859375 20.359375 -14.25 20.359375 -14.578125 C 20.40625 -14.96875 20.453125 -15.3125 20.453125 -15.6875 C 20.453125 -16.03125 20.5 -16.375 20.5 -16.796875 C 20.5 -17.140625 20.453125 -17.46875 20.453125 -17.90625 C 20.453125 -18.234375 20.453125 -18.625 20.453125 -19.046875 C 20.453125 -19.34375 20.40625 -19.734375 20.40625 -20.15625 C 20.453125 -20.53125 20.40625 -20.953125 20.328125 -21.25 C 20.234375 -21.6875 20.03125 -21.984375 19.734375 -22.15625 C 19.390625 -22.328125 19 -22.359375 18.578125 -22.40625 C 18.203125 -22.453125 17.8125 -22.359375 17.4375 -22.359375 C 16.875 -22.359375 16.453125 -22.40625 16.109375 -22.28125 C 15.734375 -22.15625 15.46875 -21.859375 15.4375 -21.25 C 15.390625 -21 15.4375 -20.625 15.4375 -20.28125 C 15.46875 -19.9375 15.46875 -19.59375 15.46875 -19.265625 C 15.515625 -18.875 15.46875 -18.53125 15.46875 -18.234375 C 15.515625 -17.859375 15.515625 -17.46875 15.515625 -17.140625 C 15.5625 -16.75 15.640625 -16.40625 15.640625 -16.078125 C 15.640625 -15.6875 15.734375 -15.34375 15.734375 -15.015625 C 15.765625 -14.625 15.734375 -14.25 15.734375 -13.90625 C 15.765625 -13.515625 15.765625 -13.1875 15.8125 -12.84375 C 15.8125 -12.453125 15.8125 -12.109375 15.8125 -11.734375 C 15.8125 -11.390625 15.90625 -11.015625 15.90625 -10.625 C 15.90625 -10.28125 15.859375 -9.953125 15.859375 -9.5625 C 15.859375 -9.21875 15.90625 -8.84375 15.90625 -8.453125 C 15.90625 -8.03125 15.734375 -7.6875 15.6875 -7.3125 C 15.640625 -6.9375 15.515625 -6.546875 15.390625 -6.203125 C 15.265625 -5.828125 15.140625 -5.484375 14.875 -5.1875 C 14.671875 -4.890625 14.375 -4.640625 14.03125 -4.46875 C 13.734375 -4.25 13.390625 -4.03125 13.015625 -3.953125 C 12.671875 -3.875 12.25 -3.78125 11.859375 -3.828125 C 11.4375 -3.78125 11.015625 -3.828125 10.625 -3.90625 C 10.25 -4.03125 9.859375 -4.203125 9.5625 -4.421875 C 9.21875 -4.640625 8.921875 -4.9375 8.671875 -5.234375 C 8.453125 -5.53125 8.328125 -5.90625 8.15625 -6.296875 C 8 -6.671875 7.859375 -7.015625 7.78125 -7.390625 C 7.6875 -7.78125 7.734375 -8.203125 7.734375 -8.59375 C 7.6875 -9.015625 7.609375 -9.359375 7.609375 -9.6875 C 7.609375 -10.078125 7.609375 -10.453125 7.609375 -10.75 C 7.609375 -11.1875 7.6875 -11.515625 7.6875 -11.859375 C 7.734375 -12.203125 7.6875 -12.546875 7.6875 -12.921875 C 7.6875 -13.265625 7.6875 -13.609375 7.6875 -14.03125 C 7.6875 -14.375 7.734375 -14.703125 7.734375 -15.140625 C 7.734375 -15.46875 7.78125 -15.859375 7.78125 -16.28125 C 7.734375 -16.671875 7.6875 -17.046875 7.6875 -17.4375 C 7.6875 -17.8125 7.78125 -18.234375 7.78125 -18.625 C 7.78125 -19 7.734375 -19.390625 7.6875 -19.765625 C 7.6875 -20.15625 7.734375 -20.578125 7.734375 -20.921875 C 7.734375 -21.390625 7.65625 -21.71875 7.53125 -21.9375 C 7.3125 -22.234375 7.015625 -22.328125 6.59375 -22.359375 C 6.296875 -22.40625 5.953125 -22.453125 5.53125 -22.40625 C 5.140625 -22.40625 4.765625 -22.484375 4.46875 -22.484375 C 4.03125 -22.484375 3.734375 -22.359375 3.4375 -22.1875 C 3.234375 -22.015625 3.015625 -21.8125 2.9375 -21.34375 C 2.890625 -21.046875 2.890625 -20.5 2.9375 -19.984375 C 2.9375 -19.421875 2.890625 -18.875 2.890625 -18.578125 C 2.890625 -18.234375 2.9375 -17.859375 2.9375 -17.4375 Z M 2.9375 -17.4375 "/></g></g></g><g fill="#004aad" fill-opacity="1"><g transform="translate(70.926023, 114.298576)"><g><path d="M 3.0625 -17.9375 C 3.0625 -17.59375 3.015625 -17.21875 3.015625 -16.796875 C 3.015625 -16.40625 3.015625 -16.03125 3.015625 -15.609375 C 3.015625 -15.265625 3.0625 -14.875 3.0625 -14.453125 C 3.0625 -14.078125 3.109375 -13.6875 3.109375 -13.3125 C 3.109375 -12.921875 2.96875 -12.546875 3.015625 -12.15625 C 3.015625 -11.78125 3.109375 -11.359375 3.109375 -10.96875 C 3.109375 -10.59375 3.0625 -10.203125 3.0625 -9.828125 C 3.0625 -9.4375 3.140625 -9.0625 3.140625 -8.671875 C 3.140625 -8.296875 3.015625 -7.90625 3.015625 -7.53125 C 3.015625 -7.140625 3.109375 -6.71875 3.109375 -6.375 C 3.109375 -5.953125 3.0625 -5.5625 3.0625 -5.234375 C 3.0625 -4.796875 3.109375 -4.421875 3.109375 -4.078125 C 3.109375 -3.609375 3.109375 -3.234375 3.109375 -2.9375 C 3.109375 -2.46875 3.140625 -2.046875 3.234375 -1.703125 C 3.3125 -1.1875 3.4375 -0.8125 3.65625 -0.59375 C 3.90625 -0.34375 4.296875 -0.296875 4.796875 -0.21875 C 5.140625 -0.171875 5.53125 -0.046875 6 -0.046875 C 6.375 0 6.765625 -0.078125 7.234375 -0.046875 C 7.53125 -0.046875 7.90625 0.046875 8.296875 0.046875 C 8.625 0.046875 9.015625 0.046875 9.390625 0.078125 C 9.734375 0.078125 10.125 0.046875 10.453125 0.046875 C 10.84375 0.078125 11.21875 0.046875 11.515625 0.046875 C 11.953125 0 12.328125 -0.046875 12.71875 -0.125 C 13.09375 -0.171875 13.515625 -0.125 13.90625 -0.25 C 14.28125 -0.34375 14.625 -0.59375 14.96875 -0.71875 C 15.34375 -0.84375 15.6875 -1.015625 16.078125 -1.1875 C 16.40625 -1.359375 16.796875 -1.453125 17.140625 -1.65625 C 17.46875 -1.875 17.734375 -2.203125 18.03125 -2.421875 C 18.328125 -2.71875 18.625 -2.9375 18.921875 -3.234375 C 19.171875 -3.53125 19.421875 -3.828125 19.640625 -4.171875 C 19.859375 -4.5 20.03125 -4.84375 20.1875 -5.234375 C 20.328125 -5.5625 20.40625 -5.953125 20.53125 -6.296875 C 20.65625 -6.671875 20.875 -7.015625 20.953125 -7.390625 C 21.09375 -7.78125 21.125 -8.125 21.21875 -8.5 C 21.296875 -8.890625 21.296875 -9.265625 21.34375 -9.65625 C 21.34375 -10.03125 21.390625 -10.421875 21.390625 -10.796875 C 21.390625 -11.1875 21.46875 -11.5625 21.421875 -11.953125 C 21.421875 -12.328125 21.34375 -12.71875 21.296875 -13.09375 C 21.25 -13.484375 21.171875 -13.859375 21.09375 -14.25 C 21 -14.625 20.875 -14.96875 20.796875 -15.34375 C 20.65625 -15.734375 20.625 -16.109375 20.5 -16.453125 C 20.359375 -16.875 20.28125 -17.265625 20.109375 -17.640625 C 19.9375 -18.03125 19.6875 -18.359375 19.515625 -18.703125 C 19.296875 -19.046875 19 -19.34375 18.75 -19.6875 C 18.5 -19.984375 18.234375 -20.28125 17.9375 -20.578125 C 17.640625 -20.828125 17.296875 -21.046875 16.96875 -21.25 C 16.578125 -21.46875 16.28125 -21.71875 15.90625 -21.890625 C 15.515625 -22.015625 15.09375 -21.984375 14.671875 -22.0625 C 14.375 -22.109375 13.984375 -22.234375 13.609375 -22.234375 C 13.265625 -22.28125 12.875 -22.28125 12.5 -22.28125 C 12.15625 -22.328125 11.78125 -22.359375 11.390625 -22.359375 C 11.046875 -22.359375 10.671875 -22.328125 10.328125 -22.328125 C 9.953125 -22.359375 9.5625 -22.359375 9.21875 -22.359375 C 8.84375 -22.359375 8.453125 -22.40625 8.125 -22.40625 C 7.734375 -22.359375 7.359375 -22.328125 7.015625 -22.328125 C 6.625 -22.328125 6.25 -22.328125 5.953125 -22.328125 C 5.484375 -22.28125 5.0625 -22.234375 4.71875 -22.109375 C 4.34375 -21.9375 4 -21.6875 3.78125 -21.390625 C 3.53125 -21.09375 3.3125 -20.75 3.1875 -20.328125 C 3.109375 -19.9375 3.140625 -19.515625 3.109375 -19.09375 C 3.109375 -18.796875 3.0625 -18.40625 3.0625 -17.9375 Z M 7.5625 -6 C 7.5625 -6.375 7.484375 -6.765625 7.484375 -7.140625 C 7.484375 -7.53125 7.484375 -7.90625 7.484375 -8.296875 C 7.484375 -8.625 7.53125 -9.015625 7.53125 -9.390625 C 7.53125 -9.78125 7.484375 -10.15625 7.53125 -10.546875 C 7.53125 -10.921875 7.4375 -11.3125 7.4375 -11.6875 C 7.4375 -12.03125 7.53125 -12.421875 7.53125 -12.796875 C 7.5625 -13.1875 7.53125 -13.5625 7.53125 -13.90625 C 7.53125 -14.28125 7.4375 -14.671875 7.4375 -15.046875 C 7.4375 -15.4375 7.4375 -15.765625 7.4375 -16.15625 C 7.4375 -16.53125 7.484375 -16.921875 7.484375 -17.296875 C 7.4375 -18.0625 7.6875 -18.203125 8.203125 -18.203125 C 8.546875 -18.203125 9.015625 -18.109375 9.609375 -18.109375 C 9.984375 -18.15625 10.421875 -18.203125 10.796875 -18.15625 C 11.1875 -18.109375 11.609375 -17.984375 11.984375 -17.859375 C 12.375 -17.765625 12.71875 -17.59375 13.09375 -17.4375 C 13.4375 -17.265625 13.8125 -17.140625 14.15625 -16.921875 C 14.5 -16.703125 14.84375 -16.453125 15.140625 -16.203125 C 15.390625 -15.90625 15.640625 -15.609375 15.90625 -15.265625 C 16.109375 -14.921875 16.328125 -14.578125 16.453125 -14.203125 C 16.578125 -13.8125 16.53125 -13.390625 16.578125 -13.015625 C 16.625 -12.671875 16.75 -12.28125 16.75 -11.953125 C 16.75 -11.609375 16.671875 -11.21875 16.671875 -10.890625 C 16.671875 -10.5 16.671875 -10.15625 16.671875 -9.828125 C 16.625 -9.390625 16.53125 -9.015625 16.453125 -8.625 C 16.375 -8.203125 16.28125 -7.828125 16.109375 -7.484375 C 15.9375 -7.09375 15.734375 -6.796875 15.46875 -6.5 C 15.171875 -6.203125 14.875 -6 14.546875 -5.734375 C 14.203125 -5.53125 13.859375 -5.3125 13.484375 -5.1875 C 13.140625 -5.015625 12.75 -4.9375 12.328125 -4.84375 C 11.953125 -4.796875 11.5625 -4.765625 11.140625 -4.71875 C 10.75 -4.671875 10.375 -4.640625 9.953125 -4.640625 C 9.5625 -4.640625 9.1875 -4.71875 8.765625 -4.765625 C 8.375 -4.796875 7.953125 -4.765625 7.53125 -4.84375 C 7.53125 -5.234375 7.609375 -5.609375 7.5625 -6 Z M 7.5625 -6 "/></g></g></g><g fill="#004aad" fill-opacity="1"><g transform="translate(94.601229, 114.298576)"><g><path d="M 22.625 -13.09375 C 22.578125 -13.515625 22.484375 -13.90625 22.453125 -14.28125 C 22.359375 -14.671875 22.359375 -15.09375 22.234375 -15.46875 C 22.109375 -15.859375 21.890625 -16.234375 21.765625 -16.625 C 21.640625 -17.046875 21.515625 -17.4375 21.34375 -17.8125 C 21.21875 -18.203125 21 -18.578125 20.828125 -18.921875 C 20.625 -19.296875 20.359375 -19.640625 20.109375 -19.984375 C 19.859375 -20.28125 19.5625 -20.578125 19.21875 -20.875 C 18.921875 -21.09375 18.578125 -21.34375 18.203125 -21.5625 C 17.8125 -21.71875 17.515625 -21.984375 17.09375 -22.15625 C 16.703125 -22.28125 16.28125 -22.328125 15.90625 -22.453125 C 15.46875 -22.53125 15.09375 -22.625 14.671875 -22.65625 C 14.25 -22.75 13.859375 -22.921875 13.4375 -22.921875 C 13.015625 -22.953125 12.578125 -22.921875 12.15625 -22.921875 C 11.78125 -22.875 11.359375 -22.875 10.921875 -22.828125 C 10.5 -22.75 10.125 -22.625 9.6875 -22.53125 C 9.3125 -22.453125 8.921875 -22.328125 8.5 -22.1875 C 8.125 -22.0625 7.734375 -21.9375 7.359375 -21.765625 C 6.96875 -21.59375 6.59375 -21.421875 6.25 -21.21875 C 5.859375 -20.953125 5.609375 -20.625 5.3125 -20.359375 C 4.96875 -20.0625 4.71875 -19.765625 4.46875 -19.421875 C 4.203125 -19.125 3.953125 -18.796875 3.734375 -18.40625 C 3.578125 -18.0625 3.40625 -17.6875 3.28125 -17.265625 C 3.140625 -16.875 3.0625 -16.453125 2.9375 -16.03125 C 2.8125 -15.609375 2.671875 -15.171875 2.59375 -14.796875 C 2.515625 -14.375 2.46875 -13.9375 2.421875 -13.515625 C 2.34375 -13.046875 2.203125 -12.671875 2.203125 -12.203125 C 2.171875 -11.78125 2.25 -11.359375 2.25 -10.921875 C 2.25 -10.5 2.25 -10.078125 2.296875 -9.609375 C 2.34375 -9.1875 2.421875 -8.765625 2.515625 -8.328125 C 2.59375 -7.90625 2.671875 -7.484375 2.765625 -7.09375 C 2.890625 -6.671875 3.0625 -6.296875 3.234375 -5.90625 C 3.359375 -5.53125 3.53125 -5.109375 3.734375 -4.765625 C 3.90625 -4.375 4.125 -4 4.34375 -3.65625 C 4.59375 -3.3125 4.890625 -2.96875 5.140625 -2.671875 C 5.4375 -2.34375 5.734375 -2.046875 6.03125 -1.78125 C 6.375 -1.484375 6.71875 -1.28125 7.09375 -1.0625 C 7.4375 -0.8125 7.828125 -0.640625 8.203125 -0.46875 C 8.59375 -0.25 8.96875 -0.125 9.359375 0 C 9.78125 0.125 10.203125 0.21875 10.59375 0.296875 C 11.015625 0.375 11.4375 0.421875 11.859375 0.46875 C 12.28125 0.46875 12.71875 0.46875 13.09375 0.421875 C 13.515625 0.421875 13.9375 0.34375 14.375 0.25 C 14.796875 0.171875 15.171875 0.125 15.609375 0 C 15.984375 -0.125 16.40625 -0.21875 16.796875 -0.421875 C 17.171875 -0.59375 17.515625 -0.84375 17.90625 -1.109375 C 18.234375 -1.3125 18.578125 -1.578125 18.875 -1.875 C 19.171875 -2.171875 19.46875 -2.46875 19.765625 -2.8125 C 20.03125 -3.109375 20.234375 -3.4375 20.5 -3.78125 C 20.703125 -4.125 20.921875 -4.5 21.09375 -4.84375 C 21.296875 -5.1875 21.515625 -5.5625 21.6875 -5.90625 C 21.8125 -6.296875 21.984375 -6.671875 22.109375 -7.0625 C 22.234375 -7.4375 22.328125 -7.859375 22.359375 -8.25 C 22.453125 -8.671875 22.53125 -9.0625 22.578125 -9.484375 C 22.65625 -9.859375 22.65625 -10.28125 22.65625 -10.71875 C 22.65625 -11.09375 22.65625 -11.515625 22.65625 -11.90625 C 22.625 -12.328125 22.625 -12.71875 22.625 -13.09375 Z M 7.265625 -12.546875 C 7.3125 -13.046875 7.359375 -13.515625 7.4375 -13.984375 C 7.484375 -14.5 7.65625 -14.96875 7.78125 -15.4375 C 7.90625 -15.8125 8 -16.203125 8.203125 -16.53125 C 8.453125 -16.875 8.765625 -17.171875 9.0625 -17.4375 C 9.359375 -17.6875 9.6875 -17.9375 10.03125 -18.15625 C 10.421875 -18.328125 10.796875 -18.453125 11.1875 -18.578125 C 11.5625 -18.671875 11.953125 -18.75 12.375 -18.796875 C 12.75 -18.796875 13.140625 -18.703125 13.515625 -18.625 C 13.90625 -18.5 14.25 -18.328125 14.625 -18.15625 C 14.96875 -17.9375 15.3125 -17.734375 15.5625 -17.46875 C 15.859375 -17.21875 16.109375 -16.875 16.328125 -16.53125 C 16.53125 -16.234375 16.75 -15.90625 16.875 -15.515625 C 17 -15.140625 17.171875 -14.703125 17.265625 -14.328125 C 17.390625 -13.90625 17.46875 -13.515625 17.515625 -13.09375 C 17.59375 -12.71875 17.640625 -12.28125 17.640625 -11.859375 C 17.6875 -11.4375 17.6875 -11.015625 17.640625 -10.625 C 17.59375 -10.203125 17.59375 -9.78125 17.515625 -9.359375 C 17.4375 -8.96875 17.34375 -8.546875 17.21875 -8.15625 C 17.09375 -7.78125 16.921875 -7.390625 16.75 -7.015625 C 16.53125 -6.5 16.234375 -6.171875 15.984375 -5.78125 C 15.640625 -5.40625 15.34375 -5.015625 14.96875 -4.765625 C 14.578125 -4.5 14.109375 -4.296875 13.640625 -4.171875 C 13.21875 -4.078125 12.75 -4.03125 12.25 -4.03125 C 11.8125 -4.078125 11.4375 -4.171875 11.09375 -4.25 C 10.671875 -4.375 10.328125 -4.5 9.984375 -4.71875 C 9.65625 -4.9375 9.390625 -5.1875 9.140625 -5.484375 C 8.890625 -5.78125 8.671875 -6.125 8.5 -6.46875 C 8.296875 -6.796875 8.125 -7.140625 8 -7.53125 C 7.859375 -7.90625 7.78125 -8.296875 7.65625 -8.71875 C 7.5625 -9.09375 7.484375 -9.53125 7.390625 -9.90625 C 7.3125 -10.328125 7.265625 -10.71875 7.1875 -11.09375 C 7.234375 -11.609375 7.234375 -12.078125 7.265625 -12.546875 Z M 7.265625 -12.546875 "/></g></g></g><g fill="#004aad" fill-opacity="1"><g transform="translate(119.551588, 114.298576)"><g><path d="M 13.90625 -17.6875 C 14.28125 -17.6875 14.625 -17.640625 14.96875 -17.640625 C 15.34375 -17.640625 15.6875 -17.6875 16.03125 -17.6875 C 16.453125 -17.734375 16.796875 -17.734375 17.046875 -17.734375 C 17.515625 -17.8125 17.765625 -17.9375 17.984375 -18.109375 C 18.203125 -18.328125 18.328125 -18.578125 18.359375 -19.046875 C 18.40625 -19.34375 18.328125 -19.6875 18.328125 -20.0625 C 18.328125 -20.53125 18.359375 -20.921875 18.328125 -21.21875 C 18.203125 -21.640625 17.9375 -21.859375 17.59375 -22.015625 C 17.34375 -22.1875 17 -22.234375 16.53125 -22.234375 C 16.15625 -22.234375 15.765625 -22.28125 15.390625 -22.28125 C 15.015625 -22.28125 14.625 -22.359375 14.25 -22.359375 C 13.90625 -22.359375 13.515625 -22.359375 13.140625 -22.359375 C 12.75 -22.359375 12.375 -22.359375 11.984375 -22.359375 C 11.609375 -22.40625 11.265625 -22.40625 10.890625 -22.40625 C 10.5 -22.40625 10.125 -22.40625 9.734375 -22.40625 C 9.359375 -22.40625 8.96875 -22.40625 8.59375 -22.40625 C 8.203125 -22.40625 7.859375 -22.328125 7.484375 -22.359375 C 7.09375 -22.359375 6.71875 -22.453125 6.328125 -22.453125 C 5.953125 -22.484375 5.5625 -22.40625 5.1875 -22.40625 C 4.796875 -22.40625 4.421875 -22.484375 4.03125 -22.484375 C 3.65625 -22.484375 3.28125 -22.484375 2.890625 -22.484375 C 2.515625 -22.484375 2.046875 -22.484375 1.78125 -22.28125 C 1.53125 -22.015625 1.359375 -21.71875 1.28125 -21.390625 C 1.140625 -21.046875 1.109375 -20.65625 1.140625 -20.359375 C 1.140625 -19.9375 1.109375 -19.5625 1.140625 -19.171875 C 1.1875 -18.796875 1.28125 -18.40625 1.609375 -18.109375 C 1.875 -17.90625 2.25 -17.90625 2.640625 -17.859375 C 2.96875 -17.859375 3.359375 -17.765625 3.703125 -17.734375 C 4.203125 -17.734375 4.671875 -17.734375 5.109375 -17.6875 C 5.65625 -17.640625 6.125 -17.5625 6.5 -17.515625 C 6.96875 -17.46875 7.265625 -17.140625 7.3125 -16.671875 C 7.3125 -16.375 7.359375 -16.03125 7.359375 -15.640625 C 7.359375 -15.34375 7.359375 -15.015625 7.359375 -14.671875 C 7.359375 -14.328125 7.390625 -13.984375 7.390625 -13.640625 C 7.390625 -13.265625 7.390625 -12.84375 7.390625 -12.5 C 7.390625 -12.078125 7.359375 -11.6875 7.359375 -11.3125 C 7.359375 -10.921875 7.359375 -10.5 7.359375 -10.15625 C 7.359375 -9.734375 7.390625 -9.359375 7.390625 -8.96875 C 7.390625 -8.59375 7.359375 -8.203125 7.359375 -7.828125 C 7.359375 -7.4375 7.3125 -7.0625 7.359375 -6.625 C 7.359375 -6.25 7.359375 -5.859375 7.390625 -5.484375 C 7.390625 -5.109375 7.359375 -4.71875 7.390625 -4.296875 C 7.390625 -3.953125 7.359375 -3.53125 7.359375 -3.140625 C 7.359375 -2.765625 7.359375 -2.375 7.359375 -1.953125 C 7.390625 -1.359375 7.484375 -0.984375 7.609375 -0.6875 C 7.78125 -0.171875 8.078125 -0.078125 8.59375 -0.046875 C 8.921875 -0.046875 9.359375 0 9.859375 -0.046875 C 10.421875 -0.046875 10.796875 -0.078125 11.09375 -0.171875 C 11.65625 -0.25 11.90625 -0.421875 12.03125 -0.8125 C 12.109375 -1.109375 12.078125 -1.53125 12.078125 -2.046875 C 12.078125 -2.46875 12.109375 -2.8125 12.078125 -3.109375 C 12.078125 -3.578125 12.03125 -3.875 12.03125 -4.171875 C 12.03125 -4.546875 12.15625 -4.84375 12.109375 -5.234375 C 12.109375 -5.53125 12.109375 -5.828125 12.109375 -6.296875 C 12.109375 -6.59375 12.078125 -6.9375 12.078125 -7.359375 C 12.078125 -7.734375 12.109375 -8.125 12.078125 -8.5 C 12.078125 -8.890625 11.984375 -9.265625 11.984375 -9.6875 C 11.984375 -10.078125 11.953125 -10.453125 11.953125 -10.84375 C 11.953125 -11.21875 11.90625 -11.65625 11.90625 -12.03125 C 11.90625 -12.421875 11.90625 -12.796875 11.90625 -13.21875 C 11.90625 -13.609375 11.90625 -13.984375 11.859375 -14.375 C 11.859375 -14.75 11.953125 -15.171875 11.953125 -15.5625 C 11.953125 -15.9375 11.90625 -16.328125 11.859375 -16.75 C 11.859375 -17.265625 12.28125 -17.640625 12.84375 -17.640625 C 13.21875 -17.640625 13.5625 -17.6875 13.90625 -17.6875 Z M 13.90625 -17.6875 "/></g></g></g><g fill="#004aad" fill-opacity="1"><g transform="translate(139.103829, 114.298576)"><g><path d="M 8.890625 -17.8125 C 9.265625 -17.8125 9.65625 -17.8125 10.03125 -17.8125 C 10.453125 -17.8125 10.84375 -17.734375 11.21875 -17.734375 C 11.609375 -17.734375 12.03125 -17.8125 12.421875 -17.8125 C 12.796875 -17.8125 13.1875 -17.8125 13.5625 -17.8125 C 13.984375 -17.8125 14.375 -17.734375 14.75 -17.734375 C 15.140625 -17.734375 15.5625 -17.765625 15.90625 -17.765625 C 16.328125 -17.765625 16.703125 -17.8125 17.09375 -17.8125 C 17.5625 -17.8125 17.9375 -17.8125 18.234375 -17.984375 C 18.578125 -18.15625 18.75 -18.453125 18.921875 -18.828125 C 19.046875 -19.171875 19.125 -19.515625 19.171875 -19.984375 C 19.171875 -20.328125 19.265625 -20.65625 19.265625 -21 C 19.265625 -21.34375 19.21875 -21.6875 18.96875 -21.890625 C 18.796875 -22.0625 18.5 -22.1875 18.0625 -22.28125 C 17.765625 -22.328125 17.46875 -22.40625 17.046875 -22.40625 C 16.703125 -22.40625 16.28125 -22.328125 15.859375 -22.328125 C 15.46875 -22.328125 15.046875 -22.359375 14.625 -22.328125 C 14.25 -22.328125 13.8125 -22.359375 13.4375 -22.359375 C 13.015625 -22.359375 12.578125 -22.28125 12.203125 -22.234375 C 11.78125 -22.234375 11.359375 -22.234375 11.015625 -22.234375 C 10.671875 -22.234375 10.28125 -22.1875 9.90625 -22.234375 C 9.5625 -22.234375 9.1875 -22.1875 8.796875 -22.1875 C 8.453125 -22.234375 8.078125 -22.234375 7.6875 -22.234375 C 7.359375 -22.28125 6.96875 -22.359375 6.59375 -22.40625 C 6.25 -22.40625 5.859375 -22.328125 5.484375 -22.328125 C 5.140625 -22.359375 4.765625 -22.40625 4.375 -22.40625 C 4.03125 -22.40625 3.703125 -22.328125 3.359375 -22.328125 C 3.3125 -21.9375 3.234375 -21.59375 3.234375 -21.21875 C 3.1875 -20.828125 3.28125 -20.453125 3.28125 -20.0625 C 3.28125 -19.6875 3.1875 -19.296875 3.1875 -18.921875 C 3.1875 -18.53125 3.234375 -18.15625 3.1875 -17.765625 C 3.1875 -17.34375 3.1875 -16.96875 3.1875 -16.578125 C 3.1875 -16.203125 3.1875 -15.8125 3.1875 -15.4375 C 3.1875 -15.046875 3.140625 -14.671875 3.109375 -14.28125 C 3.109375 -13.90625 3.234375 -13.515625 3.234375 -13.140625 C 3.234375 -12.75 3.109375 -12.375 3.109375 -11.984375 C 3.109375 -11.609375 3.1875 -11.21875 3.140625 -10.84375 C 3.140625 -10.453125 3.109375 -10.125 3.109375 -9.734375 C 3.109375 -9.359375 3.109375 -8.96875 3.109375 -8.59375 C 3.109375 -8.203125 3.109375 -7.828125 3.109375 -7.4375 C 3.109375 -7.0625 3.109375 -6.671875 3.109375 -6.296875 C 3.109375 -5.90625 3.109375 -5.53125 3.109375 -5.140625 C 3.109375 -4.765625 3.015625 -4.375 3.015625 -4 C 2.96875 -3.609375 3.109375 -3.234375 3.109375 -2.84375 C 3.109375 -2.46875 3.109375 -2.078125 3.109375 -1.703125 C 3.109375 -1.453125 3.28125 -1.015625 3.578125 -0.71875 C 3.90625 -0.375 4.296875 -0.21875 4.59375 -0.21875 C 4.96875 -0.21875 5.359375 -0.125 5.78125 -0.125 C 6.171875 -0.125 6.546875 -0.046875 6.96875 -0.046875 C 7.359375 -0.046875 7.734375 -0.046875 8.15625 -0.046875 C 8.546875 0 8.921875 -0.046875 9.359375 -0.046875 C 9.734375 -0.046875 10.15625 0.046875 10.546875 0.046875 C 10.921875 0.078125 11.359375 0.046875 11.734375 0.046875 C 12.15625 0.078125 12.546875 0 12.921875 0 C 13.34375 0 13.734375 0 14.109375 0 C 14.546875 0 14.921875 0.078125 15.3125 0.078125 C 15.734375 0.078125 16.109375 0.046875 16.5 0.046875 C 16.921875 0.046875 17.296875 0.046875 17.6875 0 C 18.15625 0 18.453125 -0.171875 18.671875 -0.46875 C 18.875 -0.71875 18.96875 -1.109375 18.921875 -1.53125 C 18.828125 -1.875 18.75 -2.296875 18.53125 -2.640625 C 18.328125 -2.890625 18.15625 -3.3125 17.9375 -3.703125 C 17.734375 -4.125 17.46875 -4.421875 17.09375 -4.46875 C 16.75 -4.5 16.40625 -4.5 15.984375 -4.5 C 15.640625 -4.5 15.265625 -4.5 14.875 -4.5 C 14.5 -4.5 14.109375 -4.59375 13.78125 -4.59375 C 13.390625 -4.59375 13.015625 -4.5 12.671875 -4.46875 C 12.28125 -4.46875 11.90625 -4.546875 11.515625 -4.546875 C 11.140625 -4.546875 10.75 -4.5 10.453125 -4.5 C 10.078125 -4.546875 9.734375 -4.546875 9.4375 -4.546875 C 9.0625 -4.546875 8.71875 -4.5 8.421875 -4.5 C 7.78125 -4.5 7.734375 -4.171875 7.359375 -4.5 C 6.890625 -5.015625 7.3125 -5.0625 7.265625 -5.859375 C 7.265625 -6.25 7.234375 -6.71875 7.234375 -7.234375 C 7.265625 -7.78125 7.09375 -7.953125 7.265625 -8.671875 C 7.609375 -8.671875 8 -8.625 8.421875 -8.625 C 8.796875 -8.625 9.1875 -8.671875 9.5625 -8.671875 C 9.953125 -8.671875 10.375 -8.625 10.75 -8.625 C 11.140625 -8.625 11.515625 -8.71875 11.90625 -8.71875 C 12.328125 -8.71875 12.71875 -8.625 13.046875 -8.625 C 13.515625 -8.625 13.90625 -8.625 14.25 -8.625 C 14.703125 -8.625 15.09375 -8.765625 15.390625 -8.84375 C 15.859375 -8.921875 16.234375 -9.0625 16.453125 -9.3125 C 16.671875 -9.609375 16.796875 -9.984375 16.84375 -10.453125 C 16.84375 -10.796875 16.703125 -11.1875 16.671875 -11.609375 C 16.625 -11.984375 16.625 -12.375 16.53125 -12.796875 C 16.234375 -12.84375 15.859375 -12.875 15.4375 -12.875 C 15.09375 -12.875 14.75 -12.796875 14.375 -12.84375 C 13.984375 -12.84375 13.640625 -12.96875 13.265625 -12.96875 C 12.875 -12.96875 12.546875 -12.875 12.15625 -12.921875 C 11.8125 -12.921875 11.4375 -12.96875 11.09375 -12.96875 C 10.71875 -13.015625 10.328125 -13.015625 10.03125 -13.015625 C 9.609375 -13.046875 9.140625 -13.140625 8.765625 -13.140625 C 8.03125 -13.140625 7.90625 -12.625 7.4375 -13.09375 C 6.96875 -13.515625 7.484375 -13.734375 7.4375 -14.40625 C 7.4375 -14.84375 7.4375 -15.3125 7.4375 -15.734375 C 7.4375 -16.15625 7.4375 -16.375 7.484375 -16.75 C 7.5625 -17 7.65625 -17.296875 7.734375 -17.765625 C 8.125 -17.765625 8.453125 -17.8125 8.890625 -17.8125 Z M 8.890625 -17.8125 "/></g></g></g><g fill="#004aad" fill-opacity="1"><g transform="translate(160.356254, 114.298576)"><g><path d="M 14.96875 0.078125 C 15.3125 0.046875 15.6875 0 16.078125 -0.078125 C 16.40625 -0.21875 16.75 -0.296875 17.09375 -0.421875 C 17.4375 -0.59375 17.734375 -0.84375 18.0625 -1.015625 C 18.359375 -1.1875 18.75 -1.3125 19.046875 -1.53125 C 19.46875 -1.828125 19.734375 -2.171875 19.984375 -2.375 C 20.40625 -2.765625 20.65625 -3.0625 20.796875 -3.3125 C 20.953125 -3.734375 20.75 -4 20.40625 -4.421875 C 20.1875 -4.671875 19.890625 -4.96875 19.59375 -5.359375 C 19.296875 -5.734375 19.046875 -6 18.828125 -6.125 C 18.53125 -6.328125 18.234375 -6.421875 17.8125 -6.25 C 17.515625 -6.125 17.21875 -6 16.796875 -5.734375 C 16.53125 -5.5625 16.28125 -5.359375 15.90625 -5.109375 C 15.609375 -4.9375 15.265625 -4.796875 14.921875 -4.59375 C 14.578125 -4.375 14.203125 -4.203125 13.8125 -4.125 C 13.4375 -4.078125 13.015625 -4.03125 12.625 -4.078125 C 12.203125 -4.171875 11.8125 -4.25 11.4375 -4.34375 C 11.046875 -4.46875 10.625 -4.640625 10.28125 -4.796875 C 9.90625 -4.96875 9.609375 -5.265625 9.3125 -5.53125 C 8.96875 -5.78125 8.71875 -6.125 8.5 -6.46875 C 8.25 -6.765625 8 -7.09375 7.828125 -7.484375 C 7.65625 -7.828125 7.4375 -8.203125 7.3125 -8.59375 C 7.1875 -9.015625 7.1875 -9.390625 7.09375 -9.828125 C 7.0625 -10.25 6.96875 -10.625 6.9375 -11.046875 C 6.9375 -11.484375 7.015625 -11.859375 7.0625 -12.28125 C 7.0625 -12.671875 7.09375 -13.015625 7.140625 -13.390625 C 7.234375 -13.734375 7.234375 -14.109375 7.3125 -14.5 C 7.4375 -14.84375 7.65625 -15.171875 7.828125 -15.46875 C 8 -15.8125 8.15625 -16.15625 8.421875 -16.453125 C 8.625 -16.703125 8.96875 -16.875 9.265625 -17.140625 C 9.5625 -17.34375 9.90625 -17.515625 10.25 -17.640625 C 10.59375 -17.8125 10.890625 -17.90625 11.265625 -17.9375 C 11.6875 -17.984375 12.078125 -18.0625 12.453125 -18.0625 C 12.84375 -18.0625 13.21875 -18.03125 13.609375 -17.984375 C 13.984375 -17.90625 14.375 -17.8125 14.75 -17.640625 C 15.09375 -17.515625 15.4375 -17.265625 15.734375 -17.046875 C 16.109375 -16.796875 16.5 -16.625 16.796875 -16.40625 C 17.171875 -16.15625 17.515625 -15.9375 17.8125 -15.765625 C 18.234375 -15.5625 18.625 -15.390625 18.96875 -15.515625 C 19.265625 -15.609375 19.515625 -15.9375 19.859375 -16.375 C 20.109375 -16.703125 20.40625 -17.140625 20.578125 -17.59375 C 20.75 -18.0625 20.875 -18.578125 20.75 -19 C 20.625 -19.296875 20.359375 -19.515625 20.109375 -19.734375 C 19.859375 -19.9375 19.640625 -20.234375 19.421875 -20.453125 C 19.125 -20.65625 18.828125 -20.875 18.53125 -21.09375 C 18.203125 -21.296875 17.859375 -21.421875 17.5625 -21.59375 C 17.21875 -21.765625 16.921875 -21.984375 16.578125 -22.109375 C 16.234375 -22.28125 15.859375 -22.328125 15.515625 -22.40625 C 15.140625 -22.484375 14.796875 -22.625 14.40625 -22.65625 C 14.03125 -22.703125 13.640625 -22.78125 13.265625 -22.78125 C 12.875 -22.78125 12.5 -22.703125 12.078125 -22.65625 C 11.734375 -22.625 11.359375 -22.578125 10.921875 -22.53125 C 10.59375 -22.453125 10.15625 -22.40625 9.828125 -22.328125 C 9.4375 -22.1875 9.09375 -21.984375 8.765625 -21.859375 C 8.375 -21.71875 8.03125 -21.5625 7.6875 -21.421875 C 7.3125 -21.25 6.96875 -21.09375 6.671875 -20.921875 C 6.328125 -20.703125 6 -20.5 5.734375 -20.234375 C 5.40625 -19.984375 5.109375 -19.765625 4.84375 -19.46875 C 4.640625 -19.21875 4.421875 -18.875 4.203125 -18.53125 C 4.03125 -18.234375 3.78125 -17.9375 3.609375 -17.59375 C 3.4375 -17.265625 3.28125 -16.875 3.140625 -16.53125 C 3.015625 -16.203125 2.890625 -15.8125 2.765625 -15.4375 C 2.671875 -15.09375 2.640625 -14.703125 2.546875 -14.328125 C 2.46875 -13.9375 2.375 -13.609375 2.34375 -13.21875 C 2.296875 -12.84375 2.25 -12.453125 2.25 -12.078125 C 2.203125 -11.6875 2.171875 -11.3125 2.203125 -10.921875 C 2.203125 -10.59375 2.25 -10.203125 2.25 -9.828125 C 2.296875 -9.4375 2.296875 -9.0625 2.34375 -8.671875 C 2.421875 -8.296875 2.546875 -7.953125 2.640625 -7.5625 C 2.765625 -7.1875 2.84375 -6.84375 2.96875 -6.46875 C 3.109375 -6.125 3.1875 -5.734375 3.3125 -5.40625 C 3.484375 -5.015625 3.703125 -4.71875 3.875 -4.375 C 4.03125 -4.03125 4.171875 -3.703125 4.375 -3.359375 C 4.59375 -3.015625 4.765625 -2.71875 5.015625 -2.421875 C 5.234375 -2.078125 5.5625 -1.875 5.90625 -1.609375 C 6.203125 -1.40625 6.5 -1.109375 6.890625 -0.9375 C 7.234375 -0.71875 7.609375 -0.59375 8 -0.421875 C 8.328125 -0.296875 8.765625 -0.25 9.140625 -0.171875 C 9.53125 -0.046875 9.90625 0 10.328125 0.078125 C 10.71875 0.125 11.09375 0.25 11.484375 0.25 C 11.90625 0.296875 12.28125 0.375 12.671875 0.375 C 13.09375 0.375 13.515625 0.25 13.859375 0.25 C 14.25 0.21875 14.578125 0.171875 14.96875 0.078125 Z M 14.96875 0.078125 "/></g></g></g><g fill="#004aad" fill-opacity="1"><g transform="translate(183.181362, 114.298576)"><g><path d="M 10.375 -15.515625 C 9.984375 -15.515625 9.5625 -15.515625 9.09375 -15.515625 C 8.71875 -15.5625 8.296875 -15.515625 7.859375 -15.515625 C 7.4375 -15.515625 7.015625 -15.515625 6.59375 -15.515625 C 6.125 -15.515625 5.703125 -15.515625 5.3125 -15.46875 C 4.84375 -15.46875 4.421875 -15.46875 4.03125 -15.46875 C 3.4375 -15.46875 3.015625 -15.4375 2.8125 -15.4375 C 2.203125 -15.390625 1.828125 -15.21875 1.578125 -14.84375 C 1.359375 -14.5 1.28125 -14.03125 1.28125 -13.4375 C 1.234375 -12.796875 1.28125 -12.328125 1.484375 -12.03125 C 1.703125 -11.65625 2.125 -11.484375 2.765625 -11.4375 C 3.109375 -11.4375 3.484375 -11.390625 3.953125 -11.390625 C 4.34375 -11.359375 4.71875 -11.390625 5.140625 -11.390625 C 5.53125 -11.390625 5.90625 -11.390625 6.328125 -11.390625 C 6.71875 -11.359375 7.140625 -11.359375 7.53125 -11.359375 C 7.90625 -11.359375 8.328125 -11.359375 8.71875 -11.359375 C 9.140625 -11.359375 9.53125 -11.359375 9.90625 -11.359375 C 10.328125 -11.359375 10.71875 -11.359375 11.09375 -11.390625 C 11.515625 -11.390625 11.953125 -11.359375 12.25 -11.390625 C 12.96875 -11.390625 13.21875 -11.609375 13.3125 -12.03125 C 13.34375 -12.375 13.265625 -12.84375 13.265625 -13.4375 C 13.265625 -14.078125 13.21875 -14.546875 12.96875 -14.875 C 12.75 -15.265625 12.328125 -15.4375 11.65625 -15.4375 C 11.4375 -15.4375 10.96875 -15.515625 10.375 -15.515625 Z M 10.375 -15.515625 "/></g></g></g><g fill="#004aad" fill-opacity="1"><g transform="translate(197.845537, 114.298576)"><g><path d="M 8.546875 -4.796875 C 8.921875 -4.765625 9.3125 -4.671875 9.6875 -4.671875 C 10.125 -4.671875 10.5 -4.671875 10.890625 -4.671875 C 11.265625 -4.671875 11.65625 -4.71875 12.03125 -4.71875 C 12.421875 -4.71875 12.796875 -4.71875 13.1875 -4.71875 C 13.5625 -4.765625 13.984375 -4.84375 14.40625 -4.84375 C 14.875 -4.796875 15.3125 -4.765625 15.6875 -4.765625 C 16.40625 -4.71875 16.40625 -4.96875 16.96875 -4.71875 C 17.4375 -4.5 17.140625 -4.296875 17.46875 -3.78125 C 17.640625 -3.53125 17.90625 -3.28125 18.0625 -2.9375 C 18.234375 -2.640625 18.359375 -2.34375 18.5 -2 C 18.671875 -1.703125 18.828125 -1.359375 18.875 -1.0625 C 19 -0.59375 19.21875 -0.375 19.421875 -0.21875 C 19.6875 -0.046875 19.984375 -0.046875 20.40625 -0.046875 C 20.703125 -0.046875 21.09375 0 21.46875 0 C 21.890625 0 22.234375 -0.078125 22.53125 -0.125 C 23 -0.21875 23.296875 -0.34375 23.421875 -0.59375 C 23.546875 -0.84375 23.515625 -1.1875 23.34375 -1.65625 C 23.21875 -1.953125 23.078125 -2.34375 22.921875 -2.71875 C 22.78125 -3.0625 22.75 -3.484375 22.578125 -3.828125 C 22.453125 -4.203125 22.1875 -4.5 22.0625 -4.890625 C 21.890625 -5.265625 21.765625 -5.609375 21.59375 -6 C 21.46875 -6.328125 21.421875 -6.765625 21.296875 -7.09375 C 21.125 -7.484375 20.921875 -7.828125 20.796875 -8.15625 C 20.65625 -8.546875 20.453125 -8.890625 20.328125 -9.21875 C 20.1875 -9.5625 20.109375 -9.953125 19.984375 -10.28125 C 19.859375 -10.625 19.640625 -10.96875 19.515625 -11.3125 C 19.390625 -11.6875 19.21875 -12.03125 19.09375 -12.375 C 18.96875 -12.71875 18.875 -13.09375 18.75 -13.4375 C 18.625 -13.8125 18.5 -14.15625 18.359375 -14.5 C 18.203125 -14.84375 18.0625 -15.171875 17.90625 -15.5625 C 17.765625 -15.90625 17.734375 -16.28125 17.59375 -16.625 C 17.46875 -17 17.21875 -17.296875 17.09375 -17.640625 C 16.96875 -17.984375 16.875 -18.359375 16.75 -18.703125 C 16.578125 -19.09375 16.53125 -19.421875 16.40625 -19.8125 C 16.28125 -20.15625 16.078125 -20.5 15.90625 -20.828125 C 15.765625 -21.171875 15.6875 -21.5625 15.5625 -21.890625 C 15.390625 -22.234375 15.265625 -22.578125 15.140625 -22.953125 C 15.015625 -23.296875 14.796875 -23.640625 14.671875 -23.984375 C 14.546875 -24.3125 14.375 -24.65625 14.25 -25 C 14.03125 -25.546875 13.984375 -25.984375 13.8125 -26.234375 C 13.484375 -26.75 13.140625 -26.828125 12.71875 -26.875 C 12.375 -26.90625 11.984375 -26.90625 11.4375 -26.875 C 11.046875 -26.875 10.84375 -26.828125 10.5 -26.578125 C 10.328125 -26.40625 10.03125 -26.234375 9.78125 -25.84375 C 9.65625 -25.59375 9.609375 -25.25 9.4375 -24.875 C 9.3125 -24.578125 9.140625 -24.28125 9.015625 -23.9375 C 8.890625 -23.59375 8.796875 -23.21875 8.671875 -22.828125 C 8.546875 -22.484375 8.421875 -22.15625 8.296875 -21.765625 C 8.15625 -21.421875 8.03125 -21.046875 7.90625 -20.703125 C 7.78125 -20.328125 7.609375 -19.984375 7.484375 -19.59375 C 7.359375 -19.265625 7.359375 -18.828125 7.234375 -18.5 C 7.09375 -18.109375 6.890625 -17.8125 6.765625 -17.4375 C 6.625 -17.09375 6.59375 -16.703125 6.46875 -16.328125 C 6.328125 -15.9375 6.125 -15.640625 6 -15.265625 C 5.90625 -14.921875 5.78125 -14.546875 5.65625 -14.15625 C 5.53125 -13.8125 5.4375 -13.4375 5.3125 -13.09375 C 5.1875 -12.71875 5.0625 -12.375 4.9375 -11.984375 C 4.796875 -11.65625 4.71875 -11.265625 4.59375 -10.890625 C 4.46875 -10.546875 4.203125 -10.203125 4.078125 -9.859375 C 3.953125 -9.53125 4 -9.09375 3.875 -8.71875 C 3.734375 -8.375 3.609375 -8.03125 3.484375 -7.65625 C 3.359375 -7.3125 3.109375 -6.96875 2.96875 -6.625 C 2.84375 -6.25 2.84375 -5.859375 2.71875 -5.53125 C 2.59375 -5.140625 2.421875 -4.796875 2.296875 -4.46875 C 2.203125 -4.25 2.046875 -3.78125 1.828125 -3.28125 C 1.703125 -2.890625 1.578125 -2.46875 1.40625 -2.078125 C 1.234375 -1.53125 1.140625 -1.0625 1.140625 -0.84375 C 1.0625 -0.125 1.3125 0.046875 1.875 0.046875 C 2.25 0.078125 2.71875 0 3.28125 0.046875 C 3.65625 0.078125 4.171875 0.078125 4.640625 0 C 5.109375 -0.078125 5.4375 -0.25 5.703125 -0.6875 C 5.859375 -1.015625 6.078125 -1.3125 6.203125 -1.65625 C 6.328125 -2 6.46875 -2.34375 6.59375 -2.671875 C 6.71875 -3.015625 6.796875 -3.359375 6.96875 -3.703125 C 7.09375 -4.03125 7.1875 -4.421875 7.359375 -4.765625 C 7.734375 -4.765625 8.15625 -4.796875 8.546875 -4.796875 Z M 9.09375 -10.453125 C 9.21875 -10.84375 9.359375 -11.1875 9.484375 -11.515625 C 9.609375 -11.90625 9.734375 -12.25 9.859375 -12.625 C 9.984375 -12.96875 10.125 -13.3125 10.28125 -13.640625 C 10.421875 -14.03125 10.5 -14.375 10.671875 -14.703125 C 10.796875 -15.09375 11.046875 -15.390625 11.1875 -15.734375 C 11.3125 -16.078125 11.3125 -16.5 11.4375 -16.875 C 11.5625 -17.21875 11.78125 -17.59375 11.90625 -17.984375 C 12.109375 -17.59375 12.25 -17.171875 12.421875 -16.875 C 12.625 -16.5 12.875 -16.203125 13.046875 -15.859375 C 13.265625 -15.515625 13.390625 -15.140625 13.515625 -14.796875 C 13.6875 -14.453125 13.8125 -14.078125 13.9375 -13.734375 C 14.109375 -13.34375 14.28125 -13.015625 14.40625 -12.625 C 14.578125 -12.28125 14.796875 -11.953125 14.921875 -11.609375 C 15.09375 -11.21875 15.140625 -10.84375 15.265625 -10.453125 C 15.4375 -10.125 15.609375 -9.78125 15.765625 -9.390625 C 15.34375 -9.390625 15.015625 -9.359375 14.625 -9.359375 C 14.203125 -9.359375 13.8125 -9.359375 13.4375 -9.359375 C 13.015625 -9.359375 12.625 -9.4375 12.25 -9.4375 C 11.859375 -9.4375 11.484375 -9.390625 11.046875 -9.390625 C 10.671875 -9.390625 10.28125 -9.390625 9.859375 -9.390625 C 9.484375 -9.390625 9.0625 -9.359375 8.625 -9.359375 C 8.765625 -9.734375 8.96875 -10.125 9.09375 -10.453125 Z M 9.09375 -10.453125 "/></g></g></g><g fill="#004aad" fill-opacity="1"><g transform="translate(222.498354, 114.298576)"><g><path d="M 8.796875 -8.5 C 9.1875 -8.546875 9.609375 -8.5 10.03125 -8.546875 C 10.453125 -8.546875 10.890625 -8.59375 11.265625 -8.625 C 11.6875 -8.625 12.109375 -8.546875 12.546875 -8.59375 C 12.96875 -8.59375 13.390625 -8.71875 13.78125 -8.71875 C 14.203125 -8.765625 14.625 -8.71875 15.015625 -8.765625 C 15.390625 -8.796875 15.765625 -8.890625 16.109375 -9.015625 C 16.5 -9.140625 16.84375 -9.265625 17.171875 -9.484375 C 17.515625 -9.65625 17.8125 -9.90625 18.0625 -10.15625 C 18.359375 -10.421875 18.671875 -10.71875 18.875 -11.015625 C 19.125 -11.3125 19.34375 -11.609375 19.515625 -11.953125 C 19.734375 -12.28125 19.859375 -12.671875 19.984375 -13.015625 C 20.109375 -13.390625 20.234375 -13.734375 20.328125 -14.109375 C 20.40625 -14.5 20.40625 -14.875 20.453125 -15.265625 C 20.453125 -15.640625 20.453125 -16.03125 20.453125 -16.40625 C 20.40625 -16.84375 20.359375 -17.21875 20.28125 -17.5625 C 20.1875 -17.9375 20.109375 -18.328125 19.984375 -18.671875 C 19.859375 -19.046875 19.6875 -19.390625 19.46875 -19.734375 C 19.265625 -20.03125 19 -20.328125 18.703125 -20.578125 C 18.453125 -20.828125 18.15625 -21.09375 17.8125 -21.25 C 17.46875 -21.46875 17.140625 -21.6875 16.75 -21.8125 C 16.40625 -21.890625 16.078125 -22.109375 15.640625 -22.15625 C 15.3125 -22.234375 14.921875 -22.1875 14.546875 -22.234375 C 14.15625 -22.328125 13.78125 -22.359375 13.390625 -22.359375 C 13.015625 -22.40625 12.625 -22.453125 12.25 -22.453125 C 11.90625 -22.484375 11.515625 -22.484375 11.140625 -22.484375 C 10.75 -22.53125 10.375 -22.484375 9.984375 -22.484375 C 9.609375 -22.53125 9.21875 -22.578125 8.890625 -22.578125 C 8.453125 -22.578125 8.078125 -22.578125 7.734375 -22.53125 C 7.359375 -22.53125 6.96875 -22.484375 6.59375 -22.453125 C 6.125 -22.40625 5.703125 -22.453125 5.359375 -22.453125 C 4.796875 -22.453125 4.375 -22.453125 4.078125 -22.359375 C 3.609375 -22.328125 3.3125 -22.109375 3.1875 -21.59375 C 3.109375 -21.25 3.140625 -20.875 3.140625 -20.328125 C 3.140625 -19.9375 3.109375 -19.515625 3.109375 -19.125 C 3.109375 -18.75 3.140625 -18.359375 3.140625 -17.984375 C 3.140625 -17.5625 3.109375 -17.171875 3.109375 -16.796875 C 3.109375 -16.40625 3.1875 -15.984375 3.1875 -15.609375 C 3.1875 -15.21875 3.1875 -14.84375 3.1875 -14.40625 C 3.1875 -14.03125 3.140625 -13.640625 3.140625 -13.265625 C 3.1875 -12.84375 3.109375 -12.453125 3.109375 -12.078125 C 3.109375 -11.6875 3.140625 -11.265625 3.140625 -10.890625 C 3.140625 -10.5 3.140625 -10.125 3.140625 -9.6875 C 3.140625 -9.3125 3.140625 -8.921875 3.140625 -8.546875 C 3.140625 -8.15625 3.1875 -7.734375 3.1875 -7.359375 C 3.1875 -6.96875 3.1875 -6.59375 3.1875 -6.203125 C 3.1875 -5.78125 3.28125 -5.40625 3.3125 -5.015625 C 3.3125 -4.640625 3.1875 -4.25 3.1875 -3.875 C 3.1875 -3.4375 3.3125 -3.0625 3.3125 -2.671875 C 3.3125 -2.171875 3.140625 -2.34375 3.234375 -1.109375 C 3.234375 -0.546875 3.578125 -0.25 3.953125 -0.125 C 4.375 0.078125 4.890625 0.046875 5.234375 0.046875 C 5.484375 0.078125 6.03125 0.046875 6.59375 -0.046875 C 7.234375 -0.125 7.78125 -0.296875 7.78125 -0.59375 C 7.734375 -0.9375 7.734375 -1.28125 7.734375 -1.578125 C 7.6875 -1.90625 7.734375 -2.203125 7.734375 -2.515625 C 7.78125 -2.84375 7.6875 -3.1875 7.6875 -3.484375 C 7.6875 -3.90625 7.734375 -4.34375 7.734375 -4.71875 C 7.734375 -5.109375 7.65625 -5.53125 7.65625 -5.90625 C 7.609375 -6.296875 7.65625 -6.71875 7.609375 -7.1875 C 7.609375 -7.53125 7.609375 -7.90625 7.5625 -8.375 C 8 -8.375 8.375 -8.5 8.796875 -8.5 Z M 7.53125 -13.8125 C 7.53125 -14.15625 7.5625 -14.546875 7.5625 -14.875 C 7.5625 -15.265625 7.53125 -15.609375 7.53125 -15.9375 C 7.53125 -16.328125 7.53125 -16.671875 7.53125 -17.046875 C 7.53125 -17.390625 7.53125 -17.734375 7.484375 -18.0625 C 7.859375 -18.0625 8.25 -18.0625 8.671875 -18.0625 C 9.09375 -18.0625 9.484375 -18.0625 9.90625 -18.0625 C 10.328125 -18.0625 10.75 -18.203125 11.140625 -18.203125 C 11.5625 -18.203125 11.984375 -18.0625 12.375 -18.0625 C 12.796875 -18.03125 13.21875 -18.109375 13.5625 -18.03125 C 13.9375 -17.984375 14.25 -17.765625 14.546875 -17.6875 C 14.875 -17.5625 15.171875 -17.4375 15.4375 -17.21875 C 15.6875 -17 15.90625 -16.75 16.03125 -16.453125 C 16.15625 -16.15625 16.203125 -15.8125 16.203125 -15.4375 C 16.203125 -14.96875 16.078125 -14.546875 15.859375 -14.15625 C 15.609375 -13.8125 15.265625 -13.515625 14.84375 -13.3125 C 14.5 -13.1875 14.03125 -13.09375 13.515625 -13.046875 C 13.1875 -13.015625 12.796875 -12.921875 12.375 -12.875 C 11.984375 -12.875 11.5625 -12.921875 11.140625 -12.875 C 10.75 -12.875 10.375 -12.796875 9.953125 -12.796875 C 9.5625 -12.75 9.140625 -12.796875 8.765625 -12.796875 C 8.328125 -12.796875 7.953125 -12.75 7.609375 -12.75 C 7.609375 -13.140625 7.53125 -13.4375 7.53125 -13.8125 Z M 7.53125 -13.8125 "/></g></g></g><g fill="#004aad" fill-opacity="1"><g transform="translate(244.728415, 114.298576)"><g><path d="M 8.796875 -8.5 C 9.1875 -8.546875 9.609375 -8.5 10.03125 -8.546875 C 10.453125 -8.546875 10.890625 -8.59375 11.265625 -8.625 C 11.6875 -8.625 12.109375 -8.546875 12.546875 -8.59375 C 12.96875 -8.59375 13.390625 -8.71875 13.78125 -8.71875 C 14.203125 -8.765625 14.625 -8.71875 15.015625 -8.765625 C 15.390625 -8.796875 15.765625 -8.890625 16.109375 -9.015625 C 16.5 -9.140625 16.84375 -9.265625 17.171875 -9.484375 C 17.515625 -9.65625 17.8125 -9.90625 18.0625 -10.15625 C 18.359375 -10.421875 18.671875 -10.71875 18.875 -11.015625 C 19.125 -11.3125 19.34375 -11.609375 19.515625 -11.953125 C 19.734375 -12.28125 19.859375 -12.671875 19.984375 -13.015625 C 20.109375 -13.390625 20.234375 -13.734375 20.328125 -14.109375 C 20.40625 -14.5 20.40625 -14.875 20.453125 -15.265625 C 20.453125 -15.640625 20.453125 -16.03125 20.453125 -16.40625 C 20.40625 -16.84375 20.359375 -17.21875 20.28125 -17.5625 C 20.1875 -17.9375 20.109375 -18.328125 19.984375 -18.671875 C 19.859375 -19.046875 19.6875 -19.390625 19.46875 -19.734375 C 19.265625 -20.03125 19 -20.328125 18.703125 -20.578125 C 18.453125 -20.828125 18.15625 -21.09375 17.8125 -21.25 C 17.46875 -21.46875 17.140625 -21.6875 16.75 -21.8125 C 16.40625 -21.890625 16.078125 -22.109375 15.640625 -22.15625 C 15.3125 -22.234375 14.921875 -22.1875 14.546875 -22.234375 C 14.15625 -22.328125 13.78125 -22.359375 13.390625 -22.359375 C 13.015625 -22.40625 12.625 -22.453125 12.25 -22.453125 C 11.90625 -22.484375 11.515625 -22.484375 11.140625 -22.484375 C 10.75 -22.53125 10.375 -22.484375 9.984375 -22.484375 C 9.609375 -22.53125 9.21875 -22.578125 8.890625 -22.578125 C 8.453125 -22.578125 8.078125 -22.578125 7.734375 -22.53125 C 7.359375 -22.53125 6.96875 -22.484375 6.59375 -22.453125 C 6.125 -22.40625 5.703125 -22.453125 5.359375 -22.453125 C 4.796875 -22.453125 4.375 -22.453125 4.078125 -22.359375 C 3.609375 -22.328125 3.3125 -22.109375 3.1875 -21.59375 C 3.109375 -21.25 3.140625 -20.875 3.140625 -20.328125 C 3.140625 -19.9375 3.109375 -19.515625 3.109375 -19.125 C 3.109375 -18.75 3.140625 -18.359375 3.140625 -17.984375 C 3.140625 -17.5625 3.109375 -17.171875 3.109375 -16.796875 C 3.109375 -16.40625 3.1875 -15.984375 3.1875 -15.609375 C 3.1875 -15.21875 3.1875 -14.84375 3.1875 -14.40625 C 3.1875 -14.03125 3.140625 -13.640625 3.140625 -13.265625 C 3.1875 -12.84375 3.109375 -12.453125 3.109375 -12.078125 C 3.109375 -11.6875 3.140625 -11.265625 3.140625 -10.890625 C 3.140625 -10.5 3.140625 -10.125 3.140625 -9.6875 C 3.140625 -9.3125 3.140625 -8.921875 3.140625 -8.546875 C 3.140625 -8.15625 3.1875 -7.734375 3.1875 -7.359375 C 3.1875 -6.96875 3.1875 -6.59375 3.1875 -6.203125 C 3.1875 -5.78125 3.28125 -5.40625 3.3125 -5.015625 C 3.3125 -4.640625 3.1875 -4.25 3.1875 -3.875 C 3.1875 -3.4375 3.3125 -3.0625 3.3125 -2.671875 C 3.3125 -2.171875 3.140625 -2.34375 3.234375 -1.109375 C 3.234375 -0.546875 3.578125 -0.25 3.953125 -0.125 C 4.375 0.078125 4.890625 0.046875 5.234375 0.046875 C 5.484375 0.078125 6.03125 0.046875 6.59375 -0.046875 C 7.234375 -0.125 7.78125 -0.296875 7.78125 -0.59375 C 7.734375 -0.9375 7.734375 -1.28125 7.734375 -1.578125 C 7.6875 -1.90625 7.734375 -2.203125 7.734375 -2.515625 C 7.78125 -2.84375 7.6875 -3.1875 7.6875 -3.484375 C 7.6875 -3.90625 7.734375 -4.34375 7.734375 -4.71875 C 7.734375 -5.109375 7.65625 -5.53125 7.65625 -5.90625 C 7.609375 -6.296875 7.65625 -6.71875 7.609375 -7.1875 C 7.609375 -7.53125 7.609375 -7.90625 7.5625 -8.375 C 8 -8.375 8.375 -8.5 8.796875 -8.5 Z M 7.53125 -13.8125 C 7.53125 -14.15625 7.5625 -14.546875 7.5625 -14.875 C 7.5625 -15.265625 7.53125 -15.609375 7.53125 -15.9375 C 7.53125 -16.328125 7.53125 -16.671875 7.53125 -17.046875 C 7.53125 -17.390625 7.53125 -17.734375 7.484375 -18.0625 C 7.859375 -18.0625 8.25 -18.0625 8.671875 -18.0625 C 9.09375 -18.0625 9.484375 -18.0625 9.90625 -18.0625 C 10.328125 -18.0625 10.75 -18.203125 11.140625 -18.203125 C 11.5625 -18.203125 11.984375 -18.0625 12.375 -18.0625 C 12.796875 -18.03125 13.21875 -18.109375 13.5625 -18.03125 C 13.9375 -17.984375 14.25 -17.765625 14.546875 -17.6875 C 14.875 -17.5625 15.171875 -17.4375 15.4375 -17.21875 C 15.6875 -17 15.90625 -16.75 16.03125 -16.453125 C 16.15625 -16.15625 16.203125 -15.8125 16.203125 -15.4375 C 16.203125 -14.96875 16.078125 -14.546875 15.859375 -14.15625 C 15.609375 -13.8125 15.265625 -13.515625 14.84375 -13.3125 C 14.5 -13.1875 14.03125 -13.09375 13.515625 -13.046875 C 13.1875 -13.015625 12.796875 -12.921875 12.375 -12.875 C 11.984375 -12.875 11.5625 -12.921875 11.140625 -12.875 C 10.75 -12.875 10.375 -12.796875 9.953125 -12.796875 C 9.5625 -12.75 9.140625 -12.796875 8.765625 -12.796875 C 8.328125 -12.796875 7.953125 -12.75 7.609375 -12.75 C 7.609375 -13.140625 7.53125 -13.4375 7.53125 -13.8125 Z M 7.53125 -13.8125 "/></g></g></g></svg>